<svg id="my-svg" width="100%" xmlns="http://www.w3.org/2000/svg" xmlns:xlink="http://www.w3.org/1999/xlink" class="erDiagram" style="max-width: 234.078px; background-color: transparent;" viewBox="0 0 234.078125 474.5" role="graphics-document document" aria-roledescription="er"><style>#my-svg{font-family:"trebuchet ms",verdana,arial,sans-serif;font-size:16px;fill:#333;}@keyframes edge-animation-frame{from{stroke-dashoffset:0;}}@keyframes dash{to{stroke-dashoffset:0;}}#my-svg .edge-animation-slow{stroke-dasharray:9,5!important;stroke-dashoffset:900;animation:dash 50s linear infinite;stroke-linecap:round;}#my-svg .edge-animation-fast{stroke-dasharray:9,5!important;stroke-dashoffset:900;animation:dash 20s linear infinite;stroke-linecap:round;}#my-svg .error-icon{fill:#552222;}#my-svg .error-text{fill:#552222;stroke:#552222;}#my-svg .edge-thickness-normal{stroke-width:1px;}#my-svg .edge-thickness-thick{stroke-width:3.5px;}#my-svg .edge-pattern-solid{stroke-dasharray:0;}#my-svg .edge-thickness-invisible{stroke-width:0;fill:none;}#my-svg .edge-pattern-dashed{stroke-dasharray:3;}#my-svg .edge-pattern-dotted{stroke-dasharray:2;}#my-svg .marker{fill:#333333;stroke:#333333;}#my-svg .marker.cross{stroke:#333333;}#my-svg svg{font-family:"trebuchet ms",verdana,arial,sans-serif;font-size:16px;}#my-svg p{margin:0;}#my-svg .entityBox{fill:#ECECFF;stroke:#9370DB;}#my-svg .relationshipLabelBox{fill:hsl(80, 100%, 96.2745098039%);opacity:0.7;background-color:hsl(80, 100%, 96.2745098039%);}#my-svg .relationshipLabelBox rect{opacity:0.5;}#my-svg .labelBkg{background-color:rgba(248.6666666666, 255, 235.9999999999, 0.5);}#my-svg .edgeLabel{background-color:rgba(232,232,232, 0.8);}#my-svg .edgeLabel .label rect{fill:rgba(232,232,232, 0.8);}#my-svg .edgeLabel .label text{fill:#333;}#my-svg .edgeLabel .label{fill:#9370DB;font-size:14px;}#my-svg .label{font-family:"trebuchet ms",verdana,arial,sans-serif;color:#333;}#my-svg .edge-pattern-dashed{stroke-dasharray:8,8;}#my-svg .node rect,#my-svg .node circle,#my-svg .node ellipse,#my-svg .node polygon{fill:#ECECFF;stroke:#9370DB;stroke-width:1px;}#my-svg .relationshipLine{stroke:#333333;stroke-width:1px;fill:none;}#my-svg .marker{fill:none!important;stroke:#333333!important;stroke-width:1;}#my-svg [data-look=neo].labelBkg{background-color:rgba(248.6666666666, 255, 235.9999999999, 0.5);}#my-svg .node .neo-node{stroke:#9370DB;}#my-svg [data-look="neo"].node rect,#my-svg [data-look="neo"].cluster rect,#my-svg [data-look="neo"].node polygon{stroke:#9370DB;filter:drop-shadow(1px 2px 2px rgba(185, 185, 185, 1));}#my-svg [data-look="neo"].swimlane.cluster rect{filter:none;}#my-svg [data-look="neo"].node path{stroke:#9370DB;stroke-width:1px;}#my-svg [data-look="neo"].node .outer-path{filter:drop-shadow(1px 2px 2px rgba(185, 185, 185, 1));}#my-svg [data-look="neo"].node .neo-line path{stroke:#9370DB;filter:none;}#my-svg [data-look="neo"].node circle{stroke:#9370DB;filter:drop-shadow(1px 2px 2px rgba(185, 185, 185, 1));}#my-svg [data-look="neo"].node circle .state-start{fill:#000000;}#my-svg [data-look="neo"].icon-shape .icon{fill:#9370DB;filter:drop-shadow(1px 2px 2px rgba(185, 185, 185, 1));}#my-svg [data-look="neo"].icon-shape .icon-neo path{stroke:#9370DB;filter:drop-shadow(1px 2px 2px rgba(185, 185, 185, 1));}#my-svg :root{--mermaid-font-family:"trebuchet ms",verdana,arial,sans-serif;}</style><g><defs><marker id="my-svg_er-onlyOneStart" class="marker onlyOne er" refX="0" refY="9" markerWidth="18" markerHeight="18" orient="auto"><path d="M9,0 L9,18 M15,0 L15,18"/></marker></defs><defs><marker id="my-svg_er-onlyOneEnd" class="marker onlyOne er" refX="18" refY="9" markerWidth="18" markerHeight="18" orient="auto"><path d="M3,0 L3,18 M9,0 L9,18"/></marker></defs><defs><marker id="my-svg_er-zeroOrOneStart" class="marker zeroOrOne er" refX="0" refY="9" markerWidth="30" markerHeight="18" orient="auto"><circle fill="white" cx="21" cy="9" r="6"/><path d="M9,0 L9,18"/></marker></defs><defs><marker id="my-svg_er-zeroOrOneEnd" class="marker zeroOrOne er" refX="30" refY="9" markerWidth="30" markerHeight="18" orient="auto"><circle fill="white" cx="9" cy="9" r="6"/><path d="M21,0 L21,18"/></marker></defs><defs><marker id="my-svg_er-oneOrMoreStart" class="marker oneOrMore er" refX="18" refY="18" markerWidth="45" markerHeight="36" orient="auto"><path d="M0,18 Q 18,0 36,18 Q 18,36 0,18 M42,9 L42,27"/></marker></defs><defs><marker id="my-svg_er-oneOrMoreEnd" class="marker oneOrMore er" refX="27" refY="18" markerWidth="45" markerHeight="36" orient="auto"><path d="M3,9 L3,27 M9,18 Q27,0 45,18 Q27,36 9,18"/></marker></defs><defs><marker id="my-svg_er-zeroOrMoreStart" class="marker zeroOrMore er" refX="18" refY="18" markerWidth="57" markerHeight="36" orient="auto"><circle fill="white" cx="48" cy="18" r="6"/><path d="M0,18 Q18,0 36,18 Q18,36 0,18"/></marker></defs><defs><marker id="my-svg_er-zeroOrMoreEnd" class="marker zeroOrMore er" refX="39" refY="18" markerWidth="57" markerHeight="36" orient="auto"><circle fill="white" cx="9" cy="18" r="6"/><path d="M21,18 Q39,0 57,18 Q39,36 21,18"/></marker></defs><g class="root"><g class="clusters"/><g class="edgePaths"><path d="M117.039,93.5L117.039,101.917C117.039,110.333,117.039,127.167,117.039,144C117.039,160.833,117.039,177.667,117.039,186.083L117.039,194.5" id="my-svg-id_entity-User-0_entity-MembershipGrant-1_0" class="edge-thickness-normal edge-pattern-solid relationshipLine" style="undefined;;;undefined" data-edge="true" data-et="edge" data-id="id_entity-User-0_entity-MembershipGrant-1_0" data-points="W3sieCI6MTE3LjAzOTA2MjUsInkiOjkzLjV9LHsieCI6MTE3LjAzOTA2MjUsInkiOjE0NH0seyJ4IjoxMTcuMDM5MDYyNSwieSI6MTk0LjV9XQ==" data-look="classic" marker-start="url(#my-svg_er-onlyOneStart)" marker-end="url(#my-svg_er-zeroOrMoreEnd)"/><path d="M117.039,280L117.039,288.417C117.039,296.833,117.039,313.667,117.039,330.5C117.039,347.333,117.039,364.167,117.039,372.583L117.039,381" id="my-svg-id_entity-MembershipGrant-1_entity-MembershipRevocation-2_1" class="edge-thickness-normal edge-pattern-solid relationshipLine" style="undefined;;;undefined" data-edge="true" data-et="edge" data-id="id_entity-MembershipGrant-1_entity-MembershipRevocation-2_1" data-points="W3sieCI6MTE3LjAzOTA2MjUsInkiOjI4MH0seyJ4IjoxMTcuMDM5MDYyNSwieSI6MzMwLjV9LHsieCI6MTE3LjAzOTA2MjUsInkiOjM4MX1d" data-look="classic" marker-start="url(#my-svg_er-onlyOneStart)" marker-end="url(#my-svg_er-zeroOrMoreEnd)"/></g><g class="edgeLabels"><g class="edgeLabel" transform="translate(117.0390625, 144)"><g class="label" data-id="id_entity-User-0_entity-MembershipGrant-1_0" transform="translate(-28.796875, -10.5)"><foreignObject width="57.59375" height="21"><div xmlns="http://www.w3.org/1999/xhtml" class="labelBkg" style="display: table-cell; white-space: nowrap; line-height: 1.5; max-width: 200px; text-align: center;"><span class="edgeLabel"><p>relates to</p></span></div></foreignObject></g></g><g class="edgeLabel" transform="translate(117.0390625, 330.5)"><g class="label" data-id="id_entity-MembershipGrant-1_entity-MembershipRevocation-2_1" transform="translate(-28.796875, -10.5)"><foreignObject width="57.59375" height="21"><div xmlns="http://www.w3.org/1999/xhtml" class="labelBkg" style="display: table-cell; white-space: nowrap; line-height: 1.5; max-width: 200px; text-align: center;"><span class="edgeLabel"><p>relates to</p></span></div></foreignObject></g></g></g><g class="nodes"><g class="node default" id="my-svg-entity-User-0" data-look="classic" transform="translate(117.0390625, 50.75)"><g class="outer-path" style=""><path d="M-73.9609375 -42.75 L73.9609375 -42.75 L73.9609375 42.75 L-73.9609375 42.75" stroke="none" stroke-width="0" fill="#ECECFF"/><path d="M-73.9609375 -42.75 C-37.561128171581146 -42.75, -1.1613188431622916 -42.75, 73.9609375 -42.75 M-73.9609375 -42.75 C-15.488806081238522 -42.75, 42.983325337522956 -42.75, 73.9609375 -42.75 M73.9609375 -42.75 C73.9609375 -12.592214279987914, 73.9609375 17.565571440024172, 73.9609375 42.75 M73.9609375 -42.75 C73.9609375 -17.516774391390868, 73.9609375 7.716451217218264, 73.9609375 42.75 M73.9609375 42.75 C44.08676091305843 42.75, 14.212584326116847 42.75, -73.9609375 42.75 M73.9609375 42.75 C32.334588504850906 42.75, -9.291760490298188 42.75, -73.9609375 42.75 M-73.9609375 42.75 C-73.9609375 20.010042829628592, -73.9609375 -2.729914340742816, -73.9609375 -42.75 M-73.9609375 42.75 C-73.9609375 15.518656422010139, -73.9609375 -11.712687155979722, -73.9609375 -42.75" stroke="#9370DB" stroke-width="1.3" fill="none" stroke-dasharray="0 0"/></g><g style="" class="row-rect-odd"><path d="M-73.9609375 0 L73.9609375 0 L73.9609375 42.75 L-73.9609375 42.75" stroke="none" stroke-width="0" fill="hsl(240, 100%, 100%)"/><path d="M-73.9609375 0 C-17.635402608147217 0, 38.690132283705566 0, 73.9609375 0 M-73.9609375 0 C-36.42259255437536 0, 1.1157523912492735 0, 73.9609375 0 M73.9609375 0 C73.9609375 16.239926802909135, 73.9609375 32.47985360581827, 73.9609375 42.75 M73.9609375 0 C73.9609375 17.027385321403962, 73.9609375 34.054770642807924, 73.9609375 42.75 M73.9609375 42.75 C15.802300260458225 42.75, -42.35633697908355 42.75, -73.9609375 42.75 M73.9609375 42.75 C38.3600476587882 42.75, 2.7591578175763942 42.75, -73.9609375 42.75 M-73.9609375 42.75 C-73.9609375 31.391221203949478, -73.9609375 20.032442407898955, -73.9609375 0 M-73.9609375 42.75 C-73.9609375 29.869911609956716, -73.9609375 16.989823219913436, -73.9609375 0" stroke="#9370DB" stroke-width="1.3" fill="none" stroke-dasharray="0 0"/></g><g class="label name" transform="translate(-16.890625, -33.375)" style=""><foreignObject width="33.78125" height="24"><div xmlns="http://www.w3.org/1999/xhtml" style="display: table-cell; white-space: nowrap; line-height: 1.5; max-width: 131px; text-align: start;"><span class="nodeLabel"><p>User</p></span></div></foreignObject></g><g class="label attribute-type" transform="translate(-61.4609375, 9.375)" style=""><foreignObject width="39.125" height="24"><div xmlns="http://www.w3.org/1999/xhtml" style="display: table-cell; white-space: nowrap; line-height: 1.5; max-width: 136px; text-align: start;"><span class="nodeLabel"><p>string</p></span></div></foreignObject></g><g class="label attribute-name" transform="translate(2.6640625, 9.375)" style=""><foreignObject width="12.453125" height="24"><div xmlns="http://www.w3.org/1999/xhtml" style="display: table-cell; white-space: nowrap; line-height: 1.5; max-width: 112px; text-align: start;"><span class="nodeLabel"><p>id</p></span></div></foreignObject></g><g class="label attribute-keys" transform="translate(40.1171875, 9.375)" style=""><foreignObject width="21.34375" height="24"><div xmlns="http://www.w3.org/1999/xhtml" style="display: table-cell; white-space: nowrap; line-height: 1.5; max-width: 121px; text-align: start;"><span class="nodeLabel"><p>PK</p></span></div></foreignObject></g><g class="label attribute-comment" transform="translate(86.4609375, 9.375)" style=""><foreignObject width="0" height="0"><div xmlns="http://www.w3.org/1999/xhtml" style="display: table-cell; white-space: nowrap; line-height: 1.5; max-width: 100px; text-align: start;"><span class="nodeLabel"></span></div></foreignObject></g><g class="divider"><path d="M-73.9609375 -0.00005 L-73.9609375 0.00005 L73.9609375 0.00005 L73.9609375 -0.00005" stroke="none" stroke-width="0" fill="#ECECFF" fill-rule="evenodd"/><path d="M-73.9609375 -0.00005 C-73.9609375 -0.00001770637789916408, -73.9609375 0.000014587244201671845, -73.9609375 0.00005 M-73.9609375 -0.00005 C-73.9609375 -0.000016786248512849247, -73.9609375 0.000016427502974301508, -73.9609375 0.00005 M-73.9609375 0.00005 C-43.609723464378824 0.00005, -13.258509428757648 0.00005, 73.9609375 0.00005 M-73.9609375 0.00005 C-44.1973790187087 0.00005, -14.433820537417404 0.00005, 73.9609375 0.00005 M73.9609375 0.00005 C73.9609375 0.000010214492689288002, 73.9609375 -0.000029571014621423997, 73.9609375 -0.00005 M73.9609375 0.00005 C73.9609375 0.000024531130007913983, 73.9609375 -9.377399841720363e-7, 73.9609375 -0.00005 M73.9609375 -0.00005 C23.618800705335474 -0.00005, -26.723336089329052 -0.00005, -73.9609375 -0.00005 M73.9609375 -0.00005 C29.588489890051612 -0.00005, -14.783957719896776 -0.00005, -73.9609375 -0.00005" stroke="#9370DB" stroke-width="1.3" fill="none" stroke-dasharray="0 0"/></g><g class="divider"><path d="M-9.8359875 0 L-9.8358875 0 L-9.8358875 42.75 L-9.8359875 42.75" stroke="none" stroke-width="0" fill="#ECECFF" fill-rule="evenodd"/><path d="M-9.8359875 0 C-9.835948823669899 0, -9.835910147339797 0, -9.8358875 0 M-9.8359875 0 C-9.835965118751957 0, -9.835942737503915 0, -9.8358875 0 M-9.8358875 0 C-9.8358875 9.077784036080914, -9.8358875 18.155568072161827, -9.8358875 42.75 M-9.8358875 0 C-9.8358875 11.303467221023546, -9.8358875 22.60693444204709, -9.8358875 42.75 M-9.8358875 42.75 C-9.835914549419005 42.75, -9.83594159883801 42.75, -9.8359875 42.75 M-9.8358875 42.75 C-9.835908107226011 42.75, -9.835928714452024 42.75, -9.8359875 42.75 M-9.8359875 42.75 C-9.8359875 30.5739121917214, -9.8359875 18.397824383442803, -9.8359875 0 M-9.8359875 42.75 C-9.8359875 30.290356982065752, -9.8359875 17.8307139641315, -9.8359875 0" stroke="#9370DB" stroke-width="1.3" fill="none" stroke-dasharray="0 0"/></g><g class="divider"><path d="M27.6171375 0 L27.6172375 0 L27.6172375 42.75 L27.6171375 42.75" stroke="none" stroke-width="0" fill="#ECECFF" fill-rule="evenodd"/><path d="M27.6171375 0 C27.617163186703156 0, 27.617188873406317 0, 27.6172375 0 M27.6171375 0 C27.617158652936777 0, 27.617179805873555 0, 27.6172375 0 M27.6172375 0 C27.6172375 9.934393788422863, 27.6172375 19.868787576845726, 27.6172375 42.75 M27.6172375 0 C27.6172375 14.306169476428527, 27.6172375 28.612338952857055, 27.6172375 42.75 M27.6172375 42.75 C27.617202208875096 42.75, 27.61716691775019 42.75, 27.6171375 42.75 M27.6172375 42.75 C27.617206244892596 42.75, 27.61717498978519 42.75, 27.6171375 42.75 M27.6171375 42.75 C27.6171375 33.30347911738782, 27.6171375 23.856958234775654, 27.6171375 0 M27.6171375 42.75 C27.6171375 26.193792832825615, 27.6171375 9.63758566565123, 27.6171375 0" stroke="#9370DB" stroke-width="1.3" fill="none" stroke-dasharray="0 0"/></g><g class="divider"><path d="M-73.9609375 -0.00005 L-73.9609375 0.00005 L73.9609375 0.00005 L73.9609375 -0.00005" stroke="none" stroke-width="0" fill="#ECECFF" fill-rule="evenodd"/><path d="M-73.9609375 -0.00005 C-73.9609375 -0.000022301580831423718, -73.9609375 0.000005396838337152567, -73.9609375 0.00005 M-73.9609375 -0.00005 C-73.9609375 -0.000010402310760632396, -73.9609375 0.00002919537847873521, -73.9609375 0.00005 M-73.9609375 0.00005 C-30.96543655489144 0.00005, 12.03006439021712 0.00005, 73.9609375 0.00005 M-73.9609375 0.00005 C-18.29222561602957 0.00005, 37.37648626794086 0.00005, 73.9609375 0.00005 M73.9609375 0.00005 C73.9609375 0.000010425221747658256, 73.9609375 -0.00002914955650468349, 73.9609375 -0.00005 M73.9609375 0.00005 C73.9609375 0.000016133596793315134, 73.9609375 -0.000017732806413369734, 73.9609375 -0.00005 M73.9609375 -0.00005 C39.16248253781015 -0.00005, 4.364027575620298 -0.00005, -73.9609375 -0.00005 M73.9609375 -0.00005 C36.78997850576942 -0.00005, -0.3809804884611623 -0.00005, -73.9609375 -0.00005" stroke="#9370DB" stroke-width="1.3" fill="none" stroke-dasharray="0 0"/></g></g><g class="node default" id="my-svg-entity-MembershipGrant-1" data-look="classic" transform="translate(117.0390625, 237.25)"><g class="outer-path" style=""><path d="M-89.0234375 -42.75 L89.0234375 -42.75 L89.0234375 42.75 L-89.0234375 42.75" stroke="none" stroke-width="0" fill="#ECECFF"/><path d="M-89.0234375 -42.75 C-38.91200712099744 -42.75, 11.199423258005126 -42.75, 89.0234375 -42.75 M-89.0234375 -42.75 C-46.436211260699466 -42.75, -3.8489850213989314 -42.75, 89.0234375 -42.75 M89.0234375 -42.75 C89.0234375 -12.019950558402869, 89.0234375 18.710098883194263, 89.0234375 42.75 M89.0234375 -42.75 C89.0234375 -10.575476320293326, 89.0234375 21.599047359413348, 89.0234375 42.75 M89.0234375 42.75 C18.54785282370041 42.75, -51.92773185259918 42.75, -89.0234375 42.75 M89.0234375 42.75 C31.160186936877153 42.75, -26.703063626245694 42.75, -89.0234375 42.75 M-89.0234375 42.75 C-89.0234375 12.094085851903095, -89.0234375 -18.56182829619381, -89.0234375 -42.75 M-89.0234375 42.75 C-89.0234375 14.563174582684976, -89.0234375 -13.623650834630048, -89.0234375 -42.75" stroke="#9370DB" stroke-width="1.3" fill="none" stroke-dasharray="0 0"/></g><g style="" class="row-rect-odd"><path d="M-89.0234375 0 L89.0234375 0 L89.0234375 42.75 L-89.0234375 42.75" stroke="none" stroke-width="0" fill="hsl(240, 100%, 100%)"/><path d="M-89.0234375 0 C-36.34371407989185 0, 16.336009340216293 0, 89.0234375 0 M-89.0234375 0 C-41.733687423229675 0, 5.55606265354065 0, 89.0234375 0 M89.0234375 0 C89.0234375 8.954042248540535, 89.0234375 17.90808449708107, 89.0234375 42.75 M89.0234375 0 C89.0234375 14.14744981863823, 89.0234375 28.29489963727646, 89.0234375 42.75 M89.0234375 42.75 C33.636424938888574 42.75, -21.750587622222852 42.75, -89.0234375 42.75 M89.0234375 42.75 C18.911007990723135 42.75, -51.20142151855373 42.75, -89.0234375 42.75 M-89.0234375 42.75 C-89.0234375 31.826245267674004, -89.0234375 20.902490535348008, -89.0234375 0 M-89.0234375 42.75 C-89.0234375 25.91754577648043, -89.0234375 9.085091552960861, -89.0234375 0" stroke="#9370DB" stroke-width="1.3" fill="none" stroke-dasharray="0 0"/></g><g class="label name" transform="translate(-64.0234375, -33.375)" style=""><foreignObject width="128.046875" height="24"><div xmlns="http://www.w3.org/1999/xhtml" style="display: table-cell; white-space: nowrap; line-height: 1.5; max-width: 218px; text-align: start;"><span class="nodeLabel"><p>MembershipGrant</p></span></div></foreignObject></g><g class="label attribute-type" transform="translate(-76.5234375, 9.375)" style=""><foreignObject width="39.125" height="24"><div xmlns="http://www.w3.org/1999/xhtml" style="display: table-cell; white-space: nowrap; line-height: 1.5; max-width: 136px; text-align: start;"><span class="nodeLabel"><p>string</p></span></div></foreignObject></g><g class="label attribute-name" transform="translate(-2.3567708333333286, 9.375)" style=""><foreignObject width="12.453125" height="24"><div xmlns="http://www.w3.org/1999/xhtml" style="display: table-cell; white-space: nowrap; line-height: 1.5; max-width: 112px; text-align: start;"><span class="nodeLabel"><p>id</p></span></div></foreignObject></g><g class="label attribute-keys" transform="translate(45.13802083333334, 9.375)" style=""><foreignObject width="21.34375" height="24"><div xmlns="http://www.w3.org/1999/xhtml" style="display: table-cell; white-space: nowrap; line-height: 1.5; max-width: 121px; text-align: start;"><span class="nodeLabel"><p>PK</p></span></div></foreignObject></g><g class="label attribute-comment" transform="translate(101.5234375, 9.375)" style=""><foreignObject width="0" height="0"><div xmlns="http://www.w3.org/1999/xhtml" style="display: table-cell; white-space: nowrap; line-height: 1.5; max-width: 100px; text-align: start;"><span class="nodeLabel"></span></div></foreignObject></g><g class="divider"><path d="M-89.0234375 -0.00005 L-89.0234375 0.00005 L89.0234375 0.00005 L89.0234375 -0.00005" stroke="none" stroke-width="0" fill="#ECECFF" fill-rule="evenodd"/><path d="M-89.0234375 -0.00005 C-89.0234375 -0.000025949084694067384, -89.0234375 -0.0000018981693881347657, -89.0234375 0.00005 M-89.0234375 -0.00005 C-89.0234375 -0.000012122663832825349, -89.0234375 0.000025754672334349304, -89.0234375 0.00005 M-89.0234375 0.00005 C-26.667681150814232 0.00005, 35.688075198371536 0.00005, 89.0234375 0.00005 M-89.0234375 0.00005 C-40.37118541280654 0.00005, 8.28106667438692 0.00005, 89.0234375 0.00005 M89.0234375 0.00005 C89.0234375 0.000016272167581546482, 89.0234375 -0.00001745566483690704, 89.0234375 -0.00005 M89.0234375 0.00005 C89.0234375 0.00002228443435941543, 89.0234375 -0.0000054311312811691455, 89.0234375 -0.00005 M89.0234375 -0.00005 C52.42453439952646 -0.00005, 15.825631299052915 -0.00005, -89.0234375 -0.00005 M89.0234375 -0.00005 C18.846479447097792 -0.00005, -51.330478605804416 -0.00005, -89.0234375 -0.00005" stroke="#9370DB" stroke-width="1.3" fill="none" stroke-dasharray="0 0"/></g><g class="divider"><path d="M-14.856820833333328 0 L-14.856720833333329 0 L-14.856720833333329 42.75 L-14.856820833333328 42.75" stroke="none" stroke-width="0" fill="#ECECFF" fill-rule="evenodd"/><path d="M-14.856820833333328 0 C-14.856792333345508 0, -14.856763833357686 0, -14.856720833333329 0 M-14.856820833333328 0 C-14.856791136680316 0, -14.856761440027304 0, -14.856720833333329 0 M-14.856720833333329 0 C-14.856720833333329 16.099358642916602, -14.856720833333329 32.198717285833204, -14.856720833333329 42.75 M-14.856720833333329 0 C-14.856720833333329 10.939675153276875, -14.856720833333329 21.87935030655375, -14.856720833333329 42.75 M-14.856720833333329 42.75 C-14.85675190550224 42.75, -14.85678297767115 42.75, -14.856820833333328 42.75 M-14.856720833333329 42.75 C-14.856754238194041 42.75, -14.856787643054753 42.75, -14.856820833333328 42.75 M-14.856820833333328 42.75 C-14.856820833333328 31.40110976507257, -14.856820833333328 20.05221953014514, -14.856820833333328 0 M-14.856820833333328 42.75 C-14.856820833333328 32.70586483132391, -14.856820833333328 22.661729662647822, -14.856820833333328 0" stroke="#9370DB" stroke-width="1.3" fill="none" stroke-dasharray="0 0"/></g><g class="divider"><path d="M32.63797083333334 0 L32.638070833333344 0 L32.638070833333344 42.75 L32.63797083333334 42.75" stroke="none" stroke-width="0" fill="#ECECFF" fill-rule="evenodd"/><path d="M32.63797083333334 0 C32.63800838760812 0, 32.638045941882886 0, 32.638070833333344 0 M32.63797083333334 0 C32.638001277087604 0, 32.638031720841866 0, 32.638070833333344 0 M32.638070833333344 0 C32.638070833333344 16.949391960590717, 32.638070833333344 33.89878392118143, 32.638070833333344 42.75 M32.638070833333344 0 C32.638070833333344 12.718287807947302, 32.638070833333344 25.436575615894604, 32.638070833333344 42.75 M32.638070833333344 42.75 C32.63804280223714 42.75, 32.63801477114093 42.75, 32.63797083333334 42.75 M32.638070833333344 42.75 C32.63803572170042 42.75, 32.6380006100675 42.75, 32.63797083333334 42.75 M32.63797083333334 42.75 C32.63797083333334 31.01259437026295, 32.63797083333334 19.2751887405259, 32.63797083333334 0 M32.63797083333334 42.75 C32.63797083333334 27.117076204461135, 32.63797083333334 11.484152408922274, 32.63797083333334 0" stroke="#9370DB" stroke-width="1.3" fill="none" stroke-dasharray="0 0"/></g><g class="divider"><path d="M-89.0234375 -0.00005 L-89.0234375 0.00005 L89.0234375 0.00005 L89.0234375 -0.00005" stroke="none" stroke-width="0" fill="#ECECFF" fill-rule="evenodd"/><path d="M-89.0234375 -0.00005 C-89.0234375 -0.000023888521553223016, -89.0234375 0.0000022229568935539705, -89.0234375 0.00005 M-89.0234375 -0.00005 C-89.0234375 -0.000010545303299478789, -89.0234375 0.000028909393401042425, -89.0234375 0.00005 M-89.0234375 0.00005 C-19.344520326312505 0.00005, 50.33439684737499 0.00005, 89.0234375 0.00005 M-89.0234375 0.00005 C-33.46381188063884 0.00005, 22.095813738722313 0.00005, 89.0234375 0.00005 M89.0234375 0.00005 C89.0234375 0.00002495316578169087, 89.0234375 -9.366843661826534e-8, 89.0234375 -0.00005 M89.0234375 0.00005 C89.0234375 0.00002943743597209498, 89.0234375 0.000008874871944189957, 89.0234375 -0.00005 M89.0234375 -0.00005 C42.076337931750864 -0.00005, -4.870761636498273 -0.00005, -89.0234375 -0.00005 M89.0234375 -0.00005 C31.473722989354506 -0.00005, -26.075991521290987 -0.00005, -89.0234375 -0.00005" stroke="#9370DB" stroke-width="1.3" fill="none" stroke-dasharray="0 0"/></g></g><g class="node default" id="my-svg-entity-MembershipRevocation-2" data-look="classic" transform="translate(117.0390625, 423.75)"><g class="outer-path" style=""><path d="M-109.0390625 -42.75 L109.0390625 -42.75 L109.0390625 42.75 L-109.0390625 42.75" stroke="none" stroke-width="0" fill="#ECECFF"/><path d="M-109.0390625 -42.75 C-51.311357149444575 -42.75, 6.41634820111085 -42.75, 109.0390625 -42.75 M-109.0390625 -42.75 C-27.784145960029633 -42.75, 53.470770579940734 -42.75, 109.0390625 -42.75 M109.0390625 -42.75 C109.0390625 -23.034366187060474, 109.0390625 -3.3187323741209482, 109.0390625 42.75 M109.0390625 -42.75 C109.0390625 -13.078592406163157, 109.0390625 16.592815187673686, 109.0390625 42.75 M109.0390625 42.75 C24.80283603179268 42.75, -59.43339043641464 42.75, -109.0390625 42.75 M109.0390625 42.75 C54.4465561069956 42.75, -0.145950286008798 42.75, -109.0390625 42.75 M-109.0390625 42.75 C-109.0390625 8.610631408833555, -109.0390625 -25.52873718233289, -109.0390625 -42.75 M-109.0390625 42.75 C-109.0390625 15.768701161697788, -109.0390625 -11.212597676604425, -109.0390625 -42.75" stroke="#9370DB" stroke-width="1.3" fill="none" stroke-dasharray="0 0"/></g><g style="" class="row-rect-odd"><path d="M-109.0390625 0 L109.0390625 0 L109.0390625 42.75 L-109.0390625 42.75" stroke="none" stroke-width="0" fill="hsl(240, 100%, 100%)"/><path d="M-109.0390625 0 C-49.22198610834695 0, 10.595090283306106 0, 109.0390625 0 M-109.0390625 0 C-53.2579893078629 0, 2.5230838842742003 0, 109.0390625 0 M109.0390625 0 C109.0390625 15.582090613152888, 109.0390625 31.164181226305775, 109.0390625 42.75 M109.0390625 0 C109.0390625 17.033624138847596, 109.0390625 34.06724827769519, 109.0390625 42.75 M109.0390625 42.75 C37.60957904598753 42.75, -33.81990440802494 42.75, -109.0390625 42.75 M109.0390625 42.75 C30.341424897191203 42.75, -48.356212705617594 42.75, -109.0390625 42.75 M-109.0390625 42.75 C-109.0390625 33.31414014100366, -109.0390625 23.878280282007328, -109.0390625 0 M-109.0390625 42.75 C-109.0390625 30.00992862447719, -109.0390625 17.269857248954377, -109.0390625 0" stroke="#9370DB" stroke-width="1.3" fill="none" stroke-dasharray="0 0"/></g><g class="label name" transform="translate(-84.0390625, -33.375)" style=""><foreignObject width="168.078125" height="24"><div xmlns="http://www.w3.org/1999/xhtml" style="display: table-cell; white-space: nowrap; line-height: 1.5; max-width: 254px; text-align: start;"><span class="nodeLabel"><p>MembershipRevocation</p></span></div></foreignObject></g><g class="label attribute-type" transform="translate(-96.5390625, 9.375)" style=""><foreignObject width="39.125" height="24"><div xmlns="http://www.w3.org/1999/xhtml" style="display: table-cell; white-space: nowrap; line-height: 1.5; max-width: 136px; text-align: start;"><span class="nodeLabel"><p>string</p></span></div></foreignObject></g><g class="label attribute-name" transform="translate(-9.028645833333329, 9.375)" style=""><foreignObject width="12.453125" height="24"><div xmlns="http://www.w3.org/1999/xhtml" style="display: table-cell; white-space: nowrap; line-height: 1.5; max-width: 112px; text-align: start;"><span class="nodeLabel"><p>id</p></span></div></foreignObject></g><g class="label attribute-keys" transform="translate(51.80989583333334, 9.375)" style=""><foreignObject width="21.34375" height="24"><div xmlns="http://www.w3.org/1999/xhtml" style="display: table-cell; white-space: nowrap; line-height: 1.5; max-width: 121px; text-align: start;"><span class="nodeLabel"><p>PK</p></span></div></foreignObject></g><g class="label attribute-comment" transform="translate(121.5390625, 9.375)" style=""><foreignObject width="0" height="0"><div xmlns="http://www.w3.org/1999/xhtml" style="display: table-cell; white-space: nowrap; line-height: 1.5; max-width: 100px; text-align: start;"><span class="nodeLabel"></span></div></foreignObject></g><g class="divider"><path d="M-109.0390625 -0.00005 L-109.0390625 0.00005 L109.0390625 0.00005 L109.0390625 -0.00005" stroke="none" stroke-width="0" fill="#ECECFF" fill-rule="evenodd"/><path d="M-109.0390625 -0.00005 C-109.0390625 -0.00002526967860299248, -109.0390625 -5.393572059849544e-7, -109.0390625 0.00005 M-109.0390625 -0.00005 C-109.0390625 -0.000023340083075247277, -109.0390625 0.0000033198338495054485, -109.0390625 0.00005 M-109.0390625 0.00005 C-37.31824408314472 0.00005, 34.40257433371056 0.00005, 109.0390625 0.00005 M-109.0390625 0.00005 C-54.86580105230127 0.00005, -0.692539604602544 0.00005, 109.0390625 0.00005 M109.0390625 0.00005 C109.0390625 0.000023088194846963308, 109.0390625 -0.000003823610306073386, 109.0390625 -0.00005 M109.0390625 0.00005 C109.0390625 0.000013815033413543676, 109.0390625 -0.00002236993317291265, 109.0390625 -0.00005 M109.0390625 -0.00005 C40.70028737112082 -0.00005, -27.638487757758355 -0.00005, -109.0390625 -0.00005 M109.0390625 -0.00005 C46.29557575358442 -0.00005, -16.447910992831154 -0.00005, -109.0390625 -0.00005" stroke="#9370DB" stroke-width="1.3" fill="none" stroke-dasharray="0 0"/></g><g class="divider"><path d="M-21.52869583333333 0 L-21.528595833333327 0 L-21.528595833333327 42.75 L-21.52869583333333 42.75" stroke="none" stroke-width="0" fill="#ECECFF" fill-rule="evenodd"/><path d="M-21.52869583333333 0 C-21.528660803069396 0, -21.528625772805462 0, -21.528595833333327 0 M-21.52869583333333 0 C-21.528665920043213 0, -21.528636006753093 0, -21.528595833333327 0 M-21.528595833333327 0 C-21.528595833333327 10.347993619076016, -21.528595833333327 20.695987238152032, -21.528595833333327 42.75 M-21.528595833333327 0 C-21.528595833333327 12.01398550555606, -21.528595833333327 24.02797101111212, -21.528595833333327 42.75 M-21.528595833333327 42.75 C-21.52863142189833 42.75, -21.528667010463334 42.75, -21.52869583333333 42.75 M-21.528595833333327 42.75 C-21.528628323772153 42.75, -21.528660814210983 42.75, -21.52869583333333 42.75 M-21.52869583333333 42.75 C-21.52869583333333 30.61465920552197, -21.52869583333333 18.47931841104394, -21.52869583333333 0 M-21.52869583333333 42.75 C-21.52869583333333 32.28974429130881, -21.52869583333333 21.82948858261762, -21.52869583333333 0" stroke="#9370DB" stroke-width="1.3" fill="none" stroke-dasharray="0 0"/></g><g class="divider"><path d="M39.30984583333334 0 L39.309945833333344 0 L39.309945833333344 42.75 L39.30984583333334 42.75" stroke="none" stroke-width="0" fill="#ECECFF" fill-rule="evenodd"/><path d="M39.30984583333334 0 C39.30988403428973 0, 39.30992223524613 0, 39.309945833333344 0 M39.30984583333334 0 C39.309880449298205 0, 39.30991506526307 0, 39.309945833333344 0 M39.309945833333344 0 C39.309945833333344 13.68952147217688, 39.309945833333344 27.37904294435376, 39.309945833333344 42.75 M39.309945833333344 0 C39.309945833333344 9.118564727645525, 39.309945833333344 18.23712945529105, 39.309945833333344 42.75 M39.309945833333344 42.75 C39.309911132443034 42.75, 39.30987643155272 42.75, 39.30984583333334 42.75 M39.309945833333344 42.75 C39.309911507249076 42.75, 39.309877181164815 42.75, 39.30984583333334 42.75 M39.30984583333334 42.75 C39.30984583333334 30.062304263523533, 39.30984583333334 17.374608527047066, 39.30984583333334 0 M39.30984583333334 42.75 C39.30984583333334 31.562922647963042, 39.30984583333334 20.375845295926084, 39.30984583333334 0" stroke="#9370DB" stroke-width="1.3" fill="none" stroke-dasharray="0 0"/></g><g class="divider"><path d="M-109.0390625 -0.00005 L-109.0390625 0.00005 L109.0390625 0.00005 L109.0390625 -0.00005" stroke="none" stroke-width="0" fill="#ECECFF" fill-rule="evenodd"/><path d="M-109.0390625 -0.00005 C-109.0390625 -0.000025084400336783366, -109.0390625 -1.688006735667296e-7, -109.0390625 0.00005 M-109.0390625 -0.00005 C-109.0390625 -0.000026803821353938975, -109.0390625 -0.000003607642707877947, -109.0390625 0.00005 M-109.0390625 0.00005 C-51.73822668960887 0.00005, 5.5626091207822554 0.00005, 109.0390625 0.00005 M-109.0390625 0.00005 C-48.63661693211091 0.00005, 11.765828635778178 0.00005, 109.0390625 0.00005 M109.0390625 0.00005 C109.0390625 0.000017202726050606554, 109.0390625 -0.000015594547898786894, 109.0390625 -0.00005 M109.0390625 0.00005 C109.0390625 0.000029279055061109496, 109.0390625 0.00000855811012221899, 109.0390625 -0.00005 M109.0390625 -0.00005 C61.15236215208427 -0.00005, 13.265661804168545 -0.00005, -109.0390625 -0.00005 M109.0390625 -0.00005 C54.24322750309154 -0.00005, -0.5526074938169216 -0.00005, -109.0390625 -0.00005" stroke="#9370DB" stroke-width="1.3" fill="none" stroke-dasharray="0 0"/></g></g></g></g></g><defs><filter id="my-svg-drop-shadow" height="130%" width="130%"><feDropShadow dx="4" dy="4" stdDeviation="0" flood-opacity="0.06" flood-color="#000000"/></filter></defs><defs><filter id="my-svg-drop-shadow-small" height="150%" width="150%"><feDropShadow dx="2" dy="2" stdDeviation="0" flood-opacity="0.06" flood-color="#000000"/></filter></defs></svg>