<svg id="my-svg" width="100%" xmlns="http://www.w3.org/2000/svg" xmlns:xlink="http://www.w3.org/1999/xlink" class="erDiagram" style="max-width: 516.578px; background-color: transparent;" viewBox="0 0 516.578125 288" role="graphics-document document" aria-roledescription="er"><style>#my-svg{font-family:"trebuchet ms",verdana,arial,sans-serif;font-size:16px;fill:#333;}@keyframes edge-animation-frame{from{stroke-dashoffset:0;}}@keyframes dash{to{stroke-dashoffset:0;}}#my-svg .edge-animation-slow{stroke-dasharray:9,5!important;stroke-dashoffset:900;animation:dash 50s linear infinite;stroke-linecap:round;}#my-svg .edge-animation-fast{stroke-dasharray:9,5!important;stroke-dashoffset:900;animation:dash 20s linear infinite;stroke-linecap:round;}#my-svg .error-icon{fill:#552222;}#my-svg .error-text{fill:#552222;stroke:#552222;}#my-svg .edge-thickness-normal{stroke-width:1px;}#my-svg .edge-thickness-thick{stroke-width:3.5px;}#my-svg .edge-pattern-solid{stroke-dasharray:0;}#my-svg .edge-thickness-invisible{stroke-width:0;fill:none;}#my-svg .edge-pattern-dashed{stroke-dasharray:3;}#my-svg .edge-pattern-dotted{stroke-dasharray:2;}#my-svg .marker{fill:#333333;stroke:#333333;}#my-svg .marker.cross{stroke:#333333;}#my-svg svg{font-family:"trebuchet ms",verdana,arial,sans-serif;font-size:16px;}#my-svg p{margin:0;}#my-svg .entityBox{fill:#ECECFF;stroke:#9370DB;}#my-svg .relationshipLabelBox{fill:hsl(80, 100%, 96.2745098039%);opacity:0.7;background-color:hsl(80, 100%, 96.2745098039%);}#my-svg .relationshipLabelBox rect{opacity:0.5;}#my-svg .labelBkg{background-color:rgba(248.6666666666, 255, 235.9999999999, 0.5);}#my-svg .edgeLabel{background-color:rgba(232,232,232, 0.8);}#my-svg .edgeLabel .label rect{fill:rgba(232,232,232, 0.8);}#my-svg .edgeLabel .label text{fill:#333;}#my-svg .edgeLabel .label{fill:#9370DB;font-size:14px;}#my-svg .label{font-family:"trebuchet ms",verdana,arial,sans-serif;color:#333;}#my-svg .edge-pattern-dashed{stroke-dasharray:8,8;}#my-svg .node rect,#my-svg .node circle,#my-svg .node ellipse,#my-svg .node polygon{fill:#ECECFF;stroke:#9370DB;stroke-width:1px;}#my-svg .relationshipLine{stroke:#333333;stroke-width:1px;fill:none;}#my-svg .marker{fill:none!important;stroke:#333333!important;stroke-width:1;}#my-svg [data-look=neo].labelBkg{background-color:rgba(248.6666666666, 255, 235.9999999999, 0.5);}#my-svg .node .neo-node{stroke:#9370DB;}#my-svg [data-look="neo"].node rect,#my-svg [data-look="neo"].cluster rect,#my-svg [data-look="neo"].node polygon{stroke:#9370DB;filter:drop-shadow(1px 2px 2px rgba(185, 185, 185, 1));}#my-svg [data-look="neo"].swimlane.cluster rect{filter:none;}#my-svg [data-look="neo"].node path{stroke:#9370DB;stroke-width:1px;}#my-svg [data-look="neo"].node .outer-path{filter:drop-shadow(1px 2px 2px rgba(185, 185, 185, 1));}#my-svg [data-look="neo"].node .neo-line path{stroke:#9370DB;filter:none;}#my-svg [data-look="neo"].node circle{stroke:#9370DB;filter:drop-shadow(1px 2px 2px rgba(185, 185, 185, 1));}#my-svg [data-look="neo"].node circle .state-start{fill:#000000;}#my-svg [data-look="neo"].icon-shape .icon{fill:#9370DB;filter:drop-shadow(1px 2px 2px rgba(185, 185, 185, 1));}#my-svg [data-look="neo"].icon-shape .icon-neo path{stroke:#9370DB;filter:drop-shadow(1px 2px 2px rgba(185, 185, 185, 1));}#my-svg :root{--mermaid-font-family:"trebuchet ms",verdana,arial,sans-serif;}</style><g><defs><marker id="my-svg_er-onlyOneStart" class="marker onlyOne er" refX="0" refY="9" markerWidth="18" markerHeight="18" orient="auto"><path d="M9,0 L9,18 M15,0 L15,18"/></marker></defs><defs><marker id="my-svg_er-onlyOneEnd" class="marker onlyOne er" refX="18" refY="9" markerWidth="18" markerHeight="18" orient="auto"><path d="M3,0 L3,18 M9,0 L9,18"/></marker></defs><defs><marker id="my-svg_er-zeroOrOneStart" class="marker zeroOrOne er" refX="0" refY="9" markerWidth="30" markerHeight="18" orient="auto"><circle fill="white" cx="21" cy="9" r="6"/><path d="M9,0 L9,18"/></marker></defs><defs><marker id="my-svg_er-zeroOrOneEnd" class="marker zeroOrOne er" refX="30" refY="9" markerWidth="30" markerHeight="18" orient="auto"><circle fill="white" cx="9" cy="9" r="6"/><path d="M21,0 L21,18"/></marker></defs><defs><marker id="my-svg_er-oneOrMoreStart" class="marker oneOrMore er" refX="18" refY="18" markerWidth="45" markerHeight="36" orient="auto"><path d="M0,18 Q 18,0 36,18 Q 18,36 0,18 M42,9 L42,27"/></marker></defs><defs><marker id="my-svg_er-oneOrMoreEnd" class="marker oneOrMore er" refX="27" refY="18" markerWidth="45" markerHeight="36" orient="auto"><path d="M3,9 L3,27 M9,18 Q27,0 45,18 Q27,36 9,18"/></marker></defs><defs><marker id="my-svg_er-zeroOrMoreStart" class="marker zeroOrMore er" refX="18" refY="18" markerWidth="57" markerHeight="36" orient="auto"><circle fill="white" cx="48" cy="18" r="6"/><path d="M0,18 Q18,0 36,18 Q18,36 0,18"/></marker></defs><defs><marker id="my-svg_er-zeroOrMoreEnd" class="marker zeroOrMore er" refX="39" refY="18" markerWidth="57" markerHeight="36" orient="auto"><circle fill="white" cx="9" cy="18" r="6"/><path d="M21,18 Q39,0 57,18 Q39,36 21,18"/></marker></defs><g class="root"><g class="clusters"/><g class="edgePaths"><path d="M181.54,93.5L167.085,101.917C152.631,110.333,123.722,127.167,109.267,144C94.813,160.833,94.813,177.667,94.813,186.083L94.813,194.5" id="my-svg-id_entity-Release-0_entity-ReleaseNoteItem-1_0" class="edge-thickness-normal edge-pattern-solid relationshipLine" style="undefined;;;undefined" data-edge="true" data-et="edge" data-id="id_entity-Release-0_entity-ReleaseNoteItem-1_0" data-points="W3sieCI6MTgxLjUzOTU2NTE4MDk2NTE2LCJ5Ijo5My41fSx7IngiOjk0LjgxMjUsInkiOjE0NH0seyJ4Ijo5NC44MTI1LCJ5IjoxOTQuNX1d" data-look="classic" marker-start="url(#my-svg_er-onlyOneStart)" marker-end="url(#my-svg_er-zeroOrMoreEnd)"/><path d="M328.374,93.5L342.829,101.917C357.284,110.333,386.193,127.167,400.647,144C415.102,160.833,415.102,177.667,415.102,186.083L415.102,194.5" id="my-svg-id_entity-Release-0_entity-DeploymentRecord-2_1" class="edge-thickness-normal edge-pattern-solid relationshipLine" style="undefined;;;undefined" data-edge="true" data-et="edge" data-id="id_entity-Release-0_entity-DeploymentRecord-2_1" data-points="W3sieCI6MzI4LjM3NDQ5NzMxOTAzNDg0LCJ5Ijo5My41fSx7IngiOjQxNS4xMDE1NjI1LCJ5IjoxNDR9LHsieCI6NDE1LjEwMTU2MjUsInkiOjE5NC41fV0=" data-look="classic" marker-start="url(#my-svg_er-onlyOneStart)" marker-end="url(#my-svg_er-zeroOrMoreEnd)"/></g><g class="edgeLabels"><g class="edgeLabel" transform="translate(94.8125, 144)"><g class="label" data-id="id_entity-Release-0_entity-ReleaseNoteItem-1_0" transform="translate(-28.796875, -10.5)"><foreignObject width="57.59375" height="21"><div xmlns="http://www.w3.org/1999/xhtml" class="labelBkg" style="display: table-cell; white-space: nowrap; line-height: 1.5; max-width: 200px; text-align: center;"><span class="edgeLabel"><p>relates to</p></span></div></foreignObject></g></g><g class="edgeLabel" transform="translate(415.1015625, 144)"><g class="label" data-id="id_entity-Release-0_entity-DeploymentRecord-2_1" transform="translate(-28.796875, -10.5)"><foreignObject width="57.59375" height="21"><div xmlns="http://www.w3.org/1999/xhtml" class="labelBkg" style="display: table-cell; white-space: nowrap; line-height: 1.5; max-width: 200px; text-align: center;"><span class="edgeLabel"><p>relates to</p></span></div></foreignObject></g></g></g><g class="nodes"><g class="node default" id="my-svg-entity-Release-0" data-look="classic" transform="translate(254.95703125, 50.75)"><g class="outer-path" style=""><path d="M-73.9609375 -42.75 L73.9609375 -42.75 L73.9609375 42.75 L-73.9609375 42.75" stroke="none" stroke-width="0" fill="#ECECFF"/><path d="M-73.9609375 -42.75 C-19.17843516721971 -42.75, 35.60406716556058 -42.75, 73.9609375 -42.75 M-73.9609375 -42.75 C-26.701093511114458 -42.75, 20.558750477771085 -42.75, 73.9609375 -42.75 M73.9609375 -42.75 C73.9609375 -23.072910193877743, 73.9609375 -3.395820387755485, 73.9609375 42.75 M73.9609375 -42.75 C73.9609375 -23.562205266585632, 73.9609375 -4.374410533171265, 73.9609375 42.75 M73.9609375 42.75 C15.648973996359054 42.75, -42.66298950728189 42.75, -73.9609375 42.75 M73.9609375 42.75 C32.14327958769871 42.75, -9.674378324602586 42.75, -73.9609375 42.75 M-73.9609375 42.75 C-73.9609375 24.41760222781785, -73.9609375 6.085204455635697, -73.9609375 -42.75 M-73.9609375 42.75 C-73.9609375 24.140667971599367, -73.9609375 5.531335943198734, -73.9609375 -42.75" stroke="#9370DB" stroke-width="1.3" fill="none" stroke-dasharray="0 0"/></g><g style="" class="row-rect-odd"><path d="M-73.9609375 0 L73.9609375 0 L73.9609375 42.75 L-73.9609375 42.75" stroke="none" stroke-width="0" fill="hsl(240, 100%, 100%)"/><path d="M-73.9609375 0 C-32.73882465925854 0, 8.48328818148292 0, 73.9609375 0 M-73.9609375 0 C-38.327522167954314 0, -2.6941068359086273 0, 73.9609375 0 M73.9609375 0 C73.9609375 8.85545442912987, 73.9609375 17.71090885825974, 73.9609375 42.75 M73.9609375 0 C73.9609375 13.099948179598615, 73.9609375 26.19989635919723, 73.9609375 42.75 M73.9609375 42.75 C34.800995847299276 42.75, -4.358945805401447 42.75, -73.9609375 42.75 M73.9609375 42.75 C22.439032484495215 42.75, -29.08287253100957 42.75, -73.9609375 42.75 M-73.9609375 42.75 C-73.9609375 30.79980625849123, -73.9609375 18.84961251698246, -73.9609375 0 M-73.9609375 42.75 C-73.9609375 27.053870968696216, -73.9609375 11.35774193739243, -73.9609375 0" stroke="#9370DB" stroke-width="1.3" fill="none" stroke-dasharray="0 0"/></g><g class="label name" transform="translate(-29.3515625, -33.375)" style=""><foreignObject width="58.703125" height="24"><div xmlns="http://www.w3.org/1999/xhtml" style="display: table-cell; white-space: nowrap; line-height: 1.5; max-width: 150px; text-align: start;"><span class="nodeLabel"><p>Release</p></span></div></foreignObject></g><g class="label attribute-type" transform="translate(-61.4609375, 9.375)" style=""><foreignObject width="39.125" height="24"><div xmlns="http://www.w3.org/1999/xhtml" style="display: table-cell; white-space: nowrap; line-height: 1.5; max-width: 136px; text-align: start;"><span class="nodeLabel"><p>string</p></span></div></foreignObject></g><g class="label attribute-name" transform="translate(2.6640625, 9.375)" style=""><foreignObject width="12.453125" height="24"><div xmlns="http://www.w3.org/1999/xhtml" style="display: table-cell; white-space: nowrap; line-height: 1.5; max-width: 112px; text-align: start;"><span class="nodeLabel"><p>id</p></span></div></foreignObject></g><g class="label attribute-keys" transform="translate(40.1171875, 9.375)" style=""><foreignObject width="21.34375" height="24"><div xmlns="http://www.w3.org/1999/xhtml" style="display: table-cell; white-space: nowrap; line-height: 1.5; max-width: 121px; text-align: start;"><span class="nodeLabel"><p>PK</p></span></div></foreignObject></g><g class="label attribute-comment" transform="translate(86.4609375, 9.375)" style=""><foreignObject width="0" height="0"><div xmlns="http://www.w3.org/1999/xhtml" style="display: table-cell; white-space: nowrap; line-height: 1.5; max-width: 100px; text-align: start;"><span class="nodeLabel"></span></div></foreignObject></g><g class="divider"><path d="M-73.9609375 -0.00005 L-73.9609375 0.00005 L73.9609375 0.00005 L73.9609375 -0.00005" stroke="none" stroke-width="0" fill="#ECECFF" fill-rule="evenodd"/><path d="M-73.9609375 -0.00005 C-73.9609375 -0.00002699320108230446, -73.9609375 -0.000003986402164608919, -73.9609375 0.00005 M-73.9609375 -0.00005 C-73.9609375 -0.000021471329699977418, -73.9609375 0.000007057340600045167, -73.9609375 0.00005 M-73.9609375 0.00005 C-35.621832710314386 0.00005, 2.7172720793712273 0.00005, 73.9609375 0.00005 M-73.9609375 0.00005 C-26.070155147782394 0.00005, 21.820627204435212 0.00005, 73.9609375 0.00005 M73.9609375 0.00005 C73.9609375 0.000023436724205521765, 73.9609375 -0.000003126551588956473, 73.9609375 -0.00005 M73.9609375 0.00005 C73.9609375 0.00001703265166658862, 73.9609375 -0.000015934696666822762, 73.9609375 -0.00005 M73.9609375 -0.00005 C31.77427894534499 -0.00005, -10.412379609310022 -0.00005, -73.9609375 -0.00005 M73.9609375 -0.00005 C22.709609178355485 -0.00005, -28.54171914328903 -0.00005, -73.9609375 -0.00005" stroke="#9370DB" stroke-width="1.3" fill="none" stroke-dasharray="0 0"/></g><g class="divider"><path d="M-9.8359875 0 L-9.8358875 0 L-9.8358875 42.75 L-9.8359875 42.75" stroke="none" stroke-width="0" fill="#ECECFF" fill-rule="evenodd"/><path d="M-9.8359875 0 C-9.835954930240556 0, -9.835922360481112 0, -9.8358875 0 M-9.8359875 0 C-9.83595281691895 0, -9.8359181338379 0, -9.8358875 0 M-9.8358875 0 C-9.8358875 12.16404777454426, -9.8358875 24.32809554908852, -9.8358875 42.75 M-9.8358875 0 C-9.8358875 13.413989934028544, -9.8358875 26.82797986805709, -9.8358875 42.75 M-9.8358875 42.75 C-9.835919444700936 42.75, -9.835951389401872 42.75, -9.8359875 42.75 M-9.8358875 42.75 C-9.835912205401835 42.75, -9.835936910803671 42.75, -9.8359875 42.75 M-9.8359875 42.75 C-9.8359875 30.743097048624534, -9.8359875 18.73619409724907, -9.8359875 0 M-9.8359875 42.75 C-9.8359875 32.6619004048565, -9.8359875 22.57380080971301, -9.8359875 0" stroke="#9370DB" stroke-width="1.3" fill="none" stroke-dasharray="0 0"/></g><g class="divider"><path d="M27.6171375 0 L27.6172375 0 L27.6172375 42.75 L27.6171375 42.75" stroke="none" stroke-width="0" fill="#ECECFF" fill-rule="evenodd"/><path d="M27.6171375 0 C27.617164472444895 0, 27.61719144488979 0, 27.6172375 0 M27.6171375 0 C27.617171708968254 0, 27.617205917936506 0, 27.6172375 0 M27.6172375 0 C27.6172375 11.162317171044265, 27.6172375 22.32463434208853, 27.6172375 42.75 M27.6172375 0 C27.6172375 16.693821278142085, 27.6172375 33.38764255628417, 27.6172375 42.75 M27.6172375 42.75 C27.617211917422942 42.75, 27.617186334845883 42.75, 27.6171375 42.75 M27.6172375 42.75 C27.61721051845917 42.75, 27.617183536918343 42.75, 27.6171375 42.75 M27.6171375 42.75 C27.6171375 27.826774727808747, 27.6171375 12.90354945561749, 27.6171375 0 M27.6171375 42.75 C27.6171375 33.529245075891396, 27.6171375 24.30849015178279, 27.6171375 0" stroke="#9370DB" stroke-width="1.3" fill="none" stroke-dasharray="0 0"/></g><g class="divider"><path d="M-73.9609375 -0.00005 L-73.9609375 0.00005 L73.9609375 0.00005 L73.9609375 -0.00005" stroke="none" stroke-width="0" fill="#ECECFF" fill-rule="evenodd"/><path d="M-73.9609375 -0.00005 C-73.9609375 -0.00001845461252958466, -73.9609375 0.000013090774940830681, -73.9609375 0.00005 M-73.9609375 -0.00005 C-73.9609375 -0.00002874352210299272, -73.9609375 -0.0000074870442059854345, -73.9609375 0.00005 M-73.9609375 0.00005 C-26.083599525186926 0.00005, 21.793738449626147 0.00005, 73.9609375 0.00005 M-73.9609375 0.00005 C-37.4658039344704 0.00005, -0.9706703689408016 0.00005, 73.9609375 0.00005 M73.9609375 0.00005 C73.9609375 0.00001611359580616236, 73.9609375 -0.00001777280838767528, 73.9609375 -0.00005 M73.9609375 0.00005 C73.9609375 0.000015147813350009965, 73.9609375 -0.000019704373299980073, 73.9609375 -0.00005 M73.9609375 -0.00005 C25.247965687005816 -0.00005, -23.465006125988367 -0.00005, -73.9609375 -0.00005 M73.9609375 -0.00005 C34.89792041287077 -0.00005, -4.165096674258464 -0.00005, -73.9609375 -0.00005" stroke="#9370DB" stroke-width="1.3" fill="none" stroke-dasharray="0 0"/></g></g><g class="node default" id="my-svg-entity-ReleaseNoteItem-1" data-look="classic" transform="translate(94.8125, 237.25)"><g class="outer-path" style=""><path d="M-86.8125 -42.75 L86.8125 -42.75 L86.8125 42.75 L-86.8125 42.75" stroke="none" stroke-width="0" fill="#ECECFF"/><path d="M-86.8125 -42.75 C-28.503523386285693 -42.75, 29.805453227428615 -42.75, 86.8125 -42.75 M-86.8125 -42.75 C-18.015290897199677 -42.75, 50.78191820560065 -42.75, 86.8125 -42.75 M86.8125 -42.75 C86.8125 -17.519800514378776, 86.8125 7.710398971242448, 86.8125 42.75 M86.8125 -42.75 C86.8125 -10.92511816972565, 86.8125 20.8997636605487, 86.8125 42.75 M86.8125 42.75 C42.29994061975909 42.75, -2.212618760481817 42.75, -86.8125 42.75 M86.8125 42.75 C44.5119902229035 42.75, 2.2114804458069983 42.75, -86.8125 42.75 M-86.8125 42.75 C-86.8125 19.93469050912666, -86.8125 -2.8806189817466787, -86.8125 -42.75 M-86.8125 42.75 C-86.8125 21.051251177628778, -86.8125 -0.6474976447424439, -86.8125 -42.75" stroke="#9370DB" stroke-width="1.3" fill="none" stroke-dasharray="0 0"/></g><g style="" class="row-rect-odd"><path d="M-86.8125 0 L86.8125 0 L86.8125 42.75 L-86.8125 42.75" stroke="none" stroke-width="0" fill="hsl(240, 100%, 100%)"/><path d="M-86.8125 0 C-47.84145760186718 0, -8.870415203734353 0, 86.8125 0 M-86.8125 0 C-28.147301244013534 0, 30.517897511972933 0, 86.8125 0 M86.8125 0 C86.8125 13.336967041337193, 86.8125 26.673934082674386, 86.8125 42.75 M86.8125 0 C86.8125 13.303765728247905, 86.8125 26.60753145649581, 86.8125 42.75 M86.8125 42.75 C48.174513443400414 42.75, 9.536526886800829 42.75, -86.8125 42.75 M86.8125 42.75 C19.995350379086005 42.75, -46.82179924182799 42.75, -86.8125 42.75 M-86.8125 42.75 C-86.8125 32.14889353069289, -86.8125 21.547787061385772, -86.8125 0 M-86.8125 42.75 C-86.8125 29.511750827621764, -86.8125 16.27350165524353, -86.8125 0" stroke="#9370DB" stroke-width="1.3" fill="none" stroke-dasharray="0 0"/></g><g class="label name" transform="translate(-61.8125, -33.375)" style=""><foreignObject width="123.625" height="24"><div xmlns="http://www.w3.org/1999/xhtml" style="display: table-cell; white-space: nowrap; line-height: 1.5; max-width: 211px; text-align: start;"><span class="nodeLabel"><p>ReleaseNoteItem</p></span></div></foreignObject></g><g class="label attribute-type" transform="translate(-74.3125, 9.375)" style=""><foreignObject width="39.125" height="24"><div xmlns="http://www.w3.org/1999/xhtml" style="display: table-cell; white-space: nowrap; line-height: 1.5; max-width: 136px; text-align: start;"><span class="nodeLabel"><p>string</p></span></div></foreignObject></g><g class="label attribute-name" transform="translate(-1.6197916666666714, 9.375)" style=""><foreignObject width="12.453125" height="24"><div xmlns="http://www.w3.org/1999/xhtml" style="display: table-cell; white-space: nowrap; line-height: 1.5; max-width: 112px; text-align: start;"><span class="nodeLabel"><p>id</p></span></div></foreignObject></g><g class="label attribute-keys" transform="translate(44.40104166666666, 9.375)" style=""><foreignObject width="21.34375" height="24"><div xmlns="http://www.w3.org/1999/xhtml" style="display: table-cell; white-space: nowrap; line-height: 1.5; max-width: 121px; text-align: start;"><span class="nodeLabel"><p>PK</p></span></div></foreignObject></g><g class="label attribute-comment" transform="translate(99.3125, 9.375)" style=""><foreignObject width="0" height="0"><div xmlns="http://www.w3.org/1999/xhtml" style="display: table-cell; white-space: nowrap; line-height: 1.5; max-width: 100px; text-align: start;"><span class="nodeLabel"></span></div></foreignObject></g><g class="divider"><path d="M-86.8125 -0.00005 L-86.8125 0.00005 L86.8125 0.00005 L86.8125 -0.00005" stroke="none" stroke-width="0" fill="#ECECFF" fill-rule="evenodd"/><path d="M-86.8125 -0.00005 C-86.8125 -0.000010856795759209346, -86.8125 0.00002828640848158131, -86.8125 0.00005 M-86.8125 -0.00005 C-86.8125 -0.000028314998273779616, -86.8125 -0.000006629996547559229, -86.8125 0.00005 M-86.8125 0.00005 C-18.95840699631586 0.00005, 48.89568600736828 0.00005, 86.8125 0.00005 M-86.8125 0.00005 C-41.98590191625772 0.00005, 2.840696167484566 0.00005, 86.8125 0.00005 M86.8125 0.00005 C86.8125 0.000027347418991354667, 86.8125 0.000004694837982709332, 86.8125 -0.00005 M86.8125 0.00005 C86.8125 0.000021344737731853804, 86.8125 -0.000007310524536292395, 86.8125 -0.00005 M86.8125 -0.00005 C17.93907625698374 -0.00005, -50.93434748603252 -0.00005, -86.8125 -0.00005 M86.8125 -0.00005 C39.41721740963727 -0.00005, -7.978065180725466 -0.00005, -86.8125 -0.00005" stroke="#9370DB" stroke-width="1.3" fill="none" stroke-dasharray="0 0"/></g><g class="divider"><path d="M-14.119841666666671 0 L-14.119741666666672 0 L-14.119741666666672 42.75 L-14.119841666666671 42.75" stroke="none" stroke-width="0" fill="#ECECFF" fill-rule="evenodd"/><path d="M-14.119841666666671 0 C-14.11981709731926 0, -14.119792527971848 0, -14.119741666666672 0 M-14.119841666666671 0 C-14.119803588434033 0, -14.119765510201393 0, -14.119741666666672 0 M-14.119741666666672 0 C-14.119741666666672 15.197161091209422, -14.119741666666672 30.394322182418843, -14.119741666666672 42.75 M-14.119741666666672 0 C-14.119741666666672 17.05225961718802, -14.119741666666672 34.10451923437604, -14.119741666666672 42.75 M-14.119741666666672 42.75 C-14.119780211652666 42.75, -14.11981875663866 42.75, -14.119841666666671 42.75 M-14.119741666666672 42.75 C-14.11976315108426 42.75, -14.11978463550185 42.75, -14.119841666666671 42.75 M-14.119841666666671 42.75 C-14.119841666666671 27.26548085397784, -14.119841666666671 11.780961707955687, -14.119841666666671 0 M-14.119841666666671 42.75 C-14.119841666666671 25.889268310383866, -14.119841666666671 9.028536620767731, -14.119841666666671 0" stroke="#9370DB" stroke-width="1.3" fill="none" stroke-dasharray="0 0"/></g><g class="divider"><path d="M31.900991666666656 0 L31.90109166666666 0 L31.90109166666666 42.75 L31.900991666666656 42.75" stroke="none" stroke-width="0" fill="#ECECFF" fill-rule="evenodd"/><path d="M31.900991666666656 0 C31.901029993007178 0, 31.901068319347704 0, 31.90109166666666 0 M31.900991666666656 0 C31.901014506303166 0, 31.901037345939674 0, 31.90109166666666 0 M31.90109166666666 0 C31.90109166666666 15.787120996495814, 31.90109166666666 31.574241992991627, 31.90109166666666 42.75 M31.90109166666666 0 C31.90109166666666 8.636000104635196, 31.90109166666666 17.27200020927039, 31.90109166666666 42.75 M31.90109166666666 42.75 C31.901051705452932 42.75, 31.90101174423921 42.75, 31.900991666666656 42.75 M31.90109166666666 42.75 C31.901068808833088 42.75, 31.90104595099952 42.75, 31.900991666666656 42.75 M31.900991666666656 42.75 C31.900991666666656 27.59203857761303, 31.900991666666656 12.434077155226063, 31.900991666666656 0 M31.900991666666656 42.75 C31.900991666666656 32.85691488048236, 31.900991666666656 22.96382976096471, 31.900991666666656 0" stroke="#9370DB" stroke-width="1.3" fill="none" stroke-dasharray="0 0"/></g><g class="divider"><path d="M-86.8125 -0.00005 L-86.8125 0.00005 L86.8125 0.00005 L86.8125 -0.00005" stroke="none" stroke-width="0" fill="#ECECFF" fill-rule="evenodd"/><path d="M-86.8125 -0.00005 C-86.8125 -0.000018216982644294055, -86.8125 0.000013566034711411891, -86.8125 0.00005 M-86.8125 -0.00005 C-86.8125 -0.000019648092374149602, -86.8125 0.000010703815251700799, -86.8125 0.00005 M-86.8125 0.00005 C-31.323563279390086 0.00005, 24.165373441219828 0.00005, 86.8125 0.00005 M-86.8125 0.00005 C-41.81266735090311 0.00005, 3.1871652981937757 0.00005, 86.8125 0.00005 M86.8125 0.00005 C86.8125 0.000026055156497828125, 86.8125 0.000002110312995656247, 86.8125 -0.00005 M86.8125 0.00005 C86.8125 0.00001324934710341568, 86.8125 -0.000023501305793168643, 86.8125 -0.00005 M86.8125 -0.00005 C48.26860899862663 -0.00005, 9.724717997253265 -0.00005, -86.8125 -0.00005 M86.8125 -0.00005 C30.1255418131322 -0.00005, -26.561416373735597 -0.00005, -86.8125 -0.00005" stroke="#9370DB" stroke-width="1.3" fill="none" stroke-dasharray="0 0"/></g></g><g class="node default" id="my-svg-entity-DeploymentRecord-2" data-look="classic" transform="translate(415.1015625, 237.25)"><g class="outer-path" style=""><path d="M-93.4765625 -42.75 L93.4765625 -42.75 L93.4765625 42.75 L-93.4765625 42.75" stroke="none" stroke-width="0" fill="#ECECFF"/><path d="M-93.4765625 -42.75 C-39.905661404250175 -42.75, 13.66523969149965 -42.75, 93.4765625 -42.75 M-93.4765625 -42.75 C-38.431507360234384 -42.75, 16.61354777953123 -42.75, 93.4765625 -42.75 M93.4765625 -42.75 C93.4765625 -12.304346284462245, 93.4765625 18.14130743107551, 93.4765625 42.75 M93.4765625 -42.75 C93.4765625 -23.21340567640969, 93.4765625 -3.676811352819378, 93.4765625 42.75 M93.4765625 42.75 C30.909378651079557 42.75, -31.657805197840887 42.75, -93.4765625 42.75 M93.4765625 42.75 C54.999709500527665 42.75, 16.52285650105533 42.75, -93.4765625 42.75 M-93.4765625 42.75 C-93.4765625 24.87348521348415, -93.4765625 6.9969704269683035, -93.4765625 -42.75 M-93.4765625 42.75 C-93.4765625 14.73451053684849, -93.4765625 -13.280978926303021, -93.4765625 -42.75" stroke="#9370DB" stroke-width="1.3" fill="none" stroke-dasharray="0 0"/></g><g style="" class="row-rect-odd"><path d="M-93.4765625 0 L93.4765625 0 L93.4765625 42.75 L-93.4765625 42.75" stroke="none" stroke-width="0" fill="hsl(240, 100%, 100%)"/><path d="M-93.4765625 0 C-23.539615090904377 0, 46.397332318191246 0, 93.4765625 0 M-93.4765625 0 C-53.59953695723558 0, -13.722511414471157 0, 93.4765625 0 M93.4765625 0 C93.4765625 13.435178500184268, 93.4765625 26.870357000368536, 93.4765625 42.75 M93.4765625 0 C93.4765625 16.73403792907786, 93.4765625 33.46807585815572, 93.4765625 42.75 M93.4765625 42.75 C21.11512395740351 42.75, -51.24631458519298 42.75, -93.4765625 42.75 M93.4765625 42.75 C39.64338948426754 42.75, -14.189783531464926 42.75, -93.4765625 42.75 M-93.4765625 42.75 C-93.4765625 32.07443321034022, -93.4765625 21.39886642068044, -93.4765625 0 M-93.4765625 42.75 C-93.4765625 26.129520932243306, -93.4765625 9.509041864486612, -93.4765625 0" stroke="#9370DB" stroke-width="1.3" fill="none" stroke-dasharray="0 0"/></g><g class="label name" transform="translate(-68.4765625, -33.375)" style=""><foreignObject width="136.953125" height="24"><div xmlns="http://www.w3.org/1999/xhtml" style="display: table-cell; white-space: nowrap; line-height: 1.5; max-width: 225px; text-align: start;"><span class="nodeLabel"><p>DeploymentRecord</p></span></div></foreignObject></g><g class="label attribute-type" transform="translate(-80.9765625, 9.375)" style=""><foreignObject width="39.125" height="24"><div xmlns="http://www.w3.org/1999/xhtml" style="display: table-cell; white-space: nowrap; line-height: 1.5; max-width: 136px; text-align: start;"><span class="nodeLabel"><p>string</p></span></div></foreignObject></g><g class="label attribute-name" transform="translate(-3.8411458333333286, 9.375)" style=""><foreignObject width="12.453125" height="24"><div xmlns="http://www.w3.org/1999/xhtml" style="display: table-cell; white-space: nowrap; line-height: 1.5; max-width: 112px; text-align: start;"><span class="nodeLabel"><p>id</p></span></div></foreignObject></g><g class="label attribute-keys" transform="translate(46.62239583333334, 9.375)" style=""><foreignObject width="21.34375" height="24"><div xmlns="http://www.w3.org/1999/xhtml" style="display: table-cell; white-space: nowrap; line-height: 1.5; max-width: 121px; text-align: start;"><span class="nodeLabel"><p>PK</p></span></div></foreignObject></g><g class="label attribute-comment" transform="translate(105.9765625, 9.375)" style=""><foreignObject width="0" height="0"><div xmlns="http://www.w3.org/1999/xhtml" style="display: table-cell; white-space: nowrap; line-height: 1.5; max-width: 100px; text-align: start;"><span class="nodeLabel"></span></div></foreignObject></g><g class="divider"><path d="M-93.4765625 -0.00005 L-93.4765625 0.00005 L93.4765625 0.00005 L93.4765625 -0.00005" stroke="none" stroke-width="0" fill="#ECECFF" fill-rule="evenodd"/><path d="M-93.4765625 -0.00005 C-93.4765625 -0.000015996883699021295, -93.4765625 0.000018006232601957413, -93.4765625 0.00005 M-93.4765625 -0.00005 C-93.4765625 -0.00002188128276566882, -93.4765625 0.000006237434468662363, -93.4765625 0.00005 M-93.4765625 0.00005 C-45.88784674771312 0.00005, 1.700869004573761 0.00005, 93.4765625 0.00005 M-93.4765625 0.00005 C-44.227714098418375 0.00005, 5.021134303163251 0.00005, 93.4765625 0.00005 M93.4765625 0.00005 C93.4765625 0.000013114576707705649, 93.4765625 -0.000023770846584588705, 93.4765625 -0.00005 M93.4765625 0.00005 C93.4765625 0.000015960696639270124, 93.4765625 -0.000018078606721459754, 93.4765625 -0.00005 M93.4765625 -0.00005 C33.1334523394447 -0.00005, -27.209657821110596 -0.00005, -93.4765625 -0.00005 M93.4765625 -0.00005 C23.18068237592547 -0.00005, -47.11519774814906 -0.00005, -93.4765625 -0.00005" stroke="#9370DB" stroke-width="1.3" fill="none" stroke-dasharray="0 0"/></g><g class="divider"><path d="M-16.34119583333333 0 L-16.341095833333327 0 L-16.341095833333327 42.75 L-16.34119583333333 42.75" stroke="none" stroke-width="0" fill="#ECECFF" fill-rule="evenodd"/><path d="M-16.34119583333333 0 C-16.341172331805996 0, -16.34114883027866 0, -16.341095833333327 0 M-16.34119583333333 0 C-16.34117452715345 0, -16.341153220973567 0, -16.341095833333327 0 M-16.341095833333327 0 C-16.341095833333327 9.774447373291709, -16.341095833333327 19.548894746583418, -16.341095833333327 42.75 M-16.341095833333327 0 C-16.341095833333327 13.186040632968597, -16.341095833333327 26.372081265937194, -16.341095833333327 42.75 M-16.341095833333327 42.75 C-16.34112663745965 42.75, -16.34115744158597 42.75, -16.34119583333333 42.75 M-16.341095833333327 42.75 C-16.34112392724747 42.75, -16.341152021161616 42.75, -16.34119583333333 42.75 M-16.34119583333333 42.75 C-16.34119583333333 26.654565618054413, -16.34119583333333 10.559131236108826, -16.34119583333333 0 M-16.34119583333333 42.75 C-16.34119583333333 27.08975922279587, -16.34119583333333 11.42951844559174, -16.34119583333333 0" stroke="#9370DB" stroke-width="1.3" fill="none" stroke-dasharray="0 0"/></g><g class="divider"><path d="M34.12234583333334 0 L34.122445833333344 0 L34.122445833333344 42.75 L34.12234583333334 42.75" stroke="none" stroke-width="0" fill="#ECECFF" fill-rule="evenodd"/><path d="M34.12234583333334 0 C34.12236693893952 0, 34.1223880445457 0, 34.122445833333344 0 M34.12234583333334 0 C34.122378700321526 0, 34.12241156730971 0, 34.122445833333344 0 M34.122445833333344 0 C34.122445833333344 16.291813563863847, 34.122445833333344 32.583627127727695, 34.122445833333344 42.75 M34.122445833333344 0 C34.122445833333344 12.259947491329537, 34.122445833333344 24.519894982659075, 34.122445833333344 42.75 M34.122445833333344 42.75 C34.12241418882515 42.75, 34.12238254431694 42.75, 34.12234583333334 42.75 M34.122445833333344 42.75 C34.122421752615345 42.75, 34.122397671897346 42.75, 34.12234583333334 42.75 M34.12234583333334 42.75 C34.12234583333334 26.3520531490351, 34.12234583333334 9.9541062980702, 34.12234583333334 0 M34.12234583333334 42.75 C34.12234583333334 29.58591246551498, 34.12234583333334 16.421824931029956, 34.12234583333334 0" stroke="#9370DB" stroke-width="1.3" fill="none" stroke-dasharray="0 0"/></g><g class="divider"><path d="M-93.4765625 -0.00005 L-93.4765625 0.00005 L93.4765625 0.00005 L93.4765625 -0.00005" stroke="none" stroke-width="0" fill="#ECECFF" fill-rule="evenodd"/><path d="M-93.4765625 -0.00005 C-93.4765625 -0.000023648784220259, -93.4765625 0.0000027024315594820003, -93.4765625 0.00005 M-93.4765625 -0.00005 C-93.4765625 -0.000011426457070528712, -93.4765625 0.000027147085858942578, -93.4765625 0.00005 M-93.4765625 0.00005 C-41.085810678180714 0.00005, 11.304941143638572 0.00005, 93.4765625 0.00005 M-93.4765625 0.00005 C-42.206981458324265 0.00005, 9.06259958335147 0.00005, 93.4765625 0.00005 M93.4765625 0.00005 C93.4765625 0.000028202668471212353, 93.4765625 0.000006405336942424703, 93.4765625 -0.00005 M93.4765625 0.00005 C93.4765625 0.00002133959058489451, 93.4765625 -0.000007320818830210983, 93.4765625 -0.00005 M93.4765625 -0.00005 C36.61551633019393 -0.00005, -20.245529839612146 -0.00005, -93.4765625 -0.00005 M93.4765625 -0.00005 C41.848891992330536 -0.00005, -9.778778515338928 -0.00005, -93.4765625 -0.00005" stroke="#9370DB" stroke-width="1.3" fill="none" stroke-dasharray="0 0"/></g></g></g></g></g><defs><filter id="my-svg-drop-shadow" height="130%" width="130%"><feDropShadow dx="4" dy="4" stdDeviation="0" flood-opacity="0.06" flood-color="#000000"/></filter></defs><defs><filter id="my-svg-drop-shadow-small" height="150%" width="150%"><feDropShadow dx="2" dy="2" stdDeviation="0" flood-opacity="0.06" flood-color="#000000"/></filter></defs></svg>