<svg id="my-svg" width="100%" xmlns="http://www.w3.org/2000/svg" xmlns:xlink="http://www.w3.org/1999/xlink" class="erDiagram" style="max-width: 1116.38px; background-color: transparent;" viewBox="0 0 1116.375 288" role="graphics-document document" aria-roledescription="er"><style>#my-svg{font-family:"trebuchet ms",verdana,arial,sans-serif;font-size:16px;fill:#333;}@keyframes edge-animation-frame{from{stroke-dashoffset:0;}}@keyframes dash{to{stroke-dashoffset:0;}}#my-svg .edge-animation-slow{stroke-dasharray:9,5!important;stroke-dashoffset:900;animation:dash 50s linear infinite;stroke-linecap:round;}#my-svg .edge-animation-fast{stroke-dasharray:9,5!important;stroke-dashoffset:900;animation:dash 20s linear infinite;stroke-linecap:round;}#my-svg .error-icon{fill:#552222;}#my-svg .error-text{fill:#552222;stroke:#552222;}#my-svg .edge-thickness-normal{stroke-width:1px;}#my-svg .edge-thickness-thick{stroke-width:3.5px;}#my-svg .edge-pattern-solid{stroke-dasharray:0;}#my-svg .edge-thickness-invisible{stroke-width:0;fill:none;}#my-svg .edge-pattern-dashed{stroke-dasharray:3;}#my-svg .edge-pattern-dotted{stroke-dasharray:2;}#my-svg .marker{fill:#333333;stroke:#333333;}#my-svg .marker.cross{stroke:#333333;}#my-svg svg{font-family:"trebuchet ms",verdana,arial,sans-serif;font-size:16px;}#my-svg p{margin:0;}#my-svg .entityBox{fill:#ECECFF;stroke:#9370DB;}#my-svg .relationshipLabelBox{fill:hsl(80, 100%, 96.2745098039%);opacity:0.7;background-color:hsl(80, 100%, 96.2745098039%);}#my-svg .relationshipLabelBox rect{opacity:0.5;}#my-svg .labelBkg{background-color:rgba(248.6666666666, 255, 235.9999999999, 0.5);}#my-svg .edgeLabel{background-color:rgba(232,232,232, 0.8);}#my-svg .edgeLabel .label rect{fill:rgba(232,232,232, 0.8);}#my-svg .edgeLabel .label text{fill:#333;}#my-svg .edgeLabel .label{fill:#9370DB;font-size:14px;}#my-svg .label{font-family:"trebuchet ms",verdana,arial,sans-serif;color:#333;}#my-svg .edge-pattern-dashed{stroke-dasharray:8,8;}#my-svg .node rect,#my-svg .node circle,#my-svg .node ellipse,#my-svg .node polygon{fill:#ECECFF;stroke:#9370DB;stroke-width:1px;}#my-svg .relationshipLine{stroke:#333333;stroke-width:1px;fill:none;}#my-svg .marker{fill:none!important;stroke:#333333!important;stroke-width:1;}#my-svg [data-look=neo].labelBkg{background-color:rgba(248.6666666666, 255, 235.9999999999, 0.5);}#my-svg .node .neo-node{stroke:#9370DB;}#my-svg [data-look="neo"].node rect,#my-svg [data-look="neo"].cluster rect,#my-svg [data-look="neo"].node polygon{stroke:#9370DB;filter:drop-shadow(1px 2px 2px rgba(185, 185, 185, 1));}#my-svg [data-look="neo"].swimlane.cluster rect{filter:none;}#my-svg [data-look="neo"].node path{stroke:#9370DB;stroke-width:1px;}#my-svg [data-look="neo"].node .outer-path{filter:drop-shadow(1px 2px 2px rgba(185, 185, 185, 1));}#my-svg [data-look="neo"].node .neo-line path{stroke:#9370DB;filter:none;}#my-svg [data-look="neo"].node circle{stroke:#9370DB;filter:drop-shadow(1px 2px 2px rgba(185, 185, 185, 1));}#my-svg [data-look="neo"].node circle .state-start{fill:#000000;}#my-svg [data-look="neo"].icon-shape .icon{fill:#9370DB;filter:drop-shadow(1px 2px 2px rgba(185, 185, 185, 1));}#my-svg [data-look="neo"].icon-shape .icon-neo path{stroke:#9370DB;filter:drop-shadow(1px 2px 2px rgba(185, 185, 185, 1));}#my-svg :root{--mermaid-font-family:"trebuchet ms",verdana,arial,sans-serif;}</style><g><defs><marker id="my-svg_er-onlyOneStart" class="marker onlyOne er" refX="0" refY="9" markerWidth="18" markerHeight="18" orient="auto"><path d="M9,0 L9,18 M15,0 L15,18"/></marker></defs><defs><marker id="my-svg_er-onlyOneEnd" class="marker onlyOne er" refX="18" refY="9" markerWidth="18" markerHeight="18" orient="auto"><path d="M3,0 L3,18 M9,0 L9,18"/></marker></defs><defs><marker id="my-svg_er-zeroOrOneStart" class="marker zeroOrOne er" refX="0" refY="9" markerWidth="30" markerHeight="18" orient="auto"><circle fill="white" cx="21" cy="9" r="6"/><path d="M9,0 L9,18"/></marker></defs><defs><marker id="my-svg_er-zeroOrOneEnd" class="marker zeroOrOne er" refX="30" refY="9" markerWidth="30" markerHeight="18" orient="auto"><circle fill="white" cx="9" cy="9" r="6"/><path d="M21,0 L21,18"/></marker></defs><defs><marker id="my-svg_er-oneOrMoreStart" class="marker oneOrMore er" refX="18" refY="18" markerWidth="45" markerHeight="36" orient="auto"><path d="M0,18 Q 18,0 36,18 Q 18,36 0,18 M42,9 L42,27"/></marker></defs><defs><marker id="my-svg_er-oneOrMoreEnd" class="marker oneOrMore er" refX="27" refY="18" markerWidth="45" markerHeight="36" orient="auto"><path d="M3,9 L3,27 M9,18 Q27,0 45,18 Q27,36 9,18"/></marker></defs><defs><marker id="my-svg_er-zeroOrMoreStart" class="marker zeroOrMore er" refX="18" refY="18" markerWidth="57" markerHeight="36" orient="auto"><circle fill="white" cx="48" cy="18" r="6"/><path d="M0,18 Q18,0 36,18 Q18,36 0,18"/></marker></defs><defs><marker id="my-svg_er-zeroOrMoreEnd" class="marker zeroOrMore er" refX="39" refY="18" markerWidth="57" markerHeight="36" orient="auto"><circle fill="white" cx="9" cy="18" r="6"/><path d="M21,18 Q39,0 57,18 Q39,36 21,18"/></marker></defs><g class="root"><g class="clusters"/><g class="edgePaths"><path d="M81.961,93.5L81.961,101.917C81.961,110.333,81.961,127.167,81.961,144C81.961,160.833,81.961,177.667,81.961,186.083L81.961,194.5" id="my-svg-id_entity-Site-0_entity-Settlement-2_0" class="edge-thickness-normal edge-pattern-solid relationshipLine" style="undefined;;;undefined" data-edge="true" data-et="edge" data-id="id_entity-Site-0_entity-Settlement-2_0" data-points="W3sieCI6ODEuOTYwOTM3NSwieSI6OTMuNX0seyJ4Ijo4MS45NjA5Mzc1LCJ5IjoxNDR9LHsieCI6ODEuOTYwOTM3NSwieSI6MTk0LjV9XQ==" data-look="classic" marker-start="url(#my-svg_er-onlyOneStart)" marker-end="url(#my-svg_er-zeroOrOneEnd)"/></g><g class="edgeLabels"><g class="edgeLabel" transform="translate(81.9609375, 144)"><g class="label" data-id="id_entity-Site-0_entity-Settlement-2_0" transform="translate(-28.796875, -10.5)"><foreignObject width="57.59375" height="21"><div xmlns="http://www.w3.org/1999/xhtml" class="labelBkg" style="display: table-cell; white-space: nowrap; line-height: 1.5; max-width: 200px; text-align: center;"><span class="edgeLabel"><p>relates to</p></span></div></foreignObject></g></g></g><g class="nodes"><g class="node default" id="my-svg-entity-Site-0" data-look="classic" transform="translate(81.9609375, 50.75)"><g class="outer-path" style=""><path d="M-73.9609375 -42.75 L73.9609375 -42.75 L73.9609375 42.75 L-73.9609375 42.75" stroke="none" stroke-width="0" fill="#ECECFF"/><path d="M-73.9609375 -42.75 C-17.905863678117193 -42.75, 38.149210143765615 -42.75, 73.9609375 -42.75 M-73.9609375 -42.75 C-37.33962983896927 -42.75, -0.7183221779385462 -42.75, 73.9609375 -42.75 M73.9609375 -42.75 C73.9609375 -18.715440537372555, 73.9609375 5.319118925254891, 73.9609375 42.75 M73.9609375 -42.75 C73.9609375 -18.528787966435768, 73.9609375 5.692424067128464, 73.9609375 42.75 M73.9609375 42.75 C41.86525090536273 42.75, 9.769564310725457 42.75, -73.9609375 42.75 M73.9609375 42.75 C34.68482060389297 42.75, -4.591296292214054 42.75, -73.9609375 42.75 M-73.9609375 42.75 C-73.9609375 13.661219715634214, -73.9609375 -15.427560568731572, -73.9609375 -42.75 M-73.9609375 42.75 C-73.9609375 24.435292484284247, -73.9609375 6.120584968568494, -73.9609375 -42.75" stroke="#9370DB" stroke-width="1.3" fill="none" stroke-dasharray="0 0"/></g><g style="" class="row-rect-odd"><path d="M-73.9609375 0 L73.9609375 0 L73.9609375 42.75 L-73.9609375 42.75" stroke="none" stroke-width="0" fill="hsl(240, 100%, 100%)"/><path d="M-73.9609375 0 C-33.222479012355876 0, 7.515979475288248 0, 73.9609375 0 M-73.9609375 0 C-43.48635571655518 0, -13.01177393311037 0, 73.9609375 0 M73.9609375 0 C73.9609375 12.34019171535287, 73.9609375 24.68038343070574, 73.9609375 42.75 M73.9609375 0 C73.9609375 16.98096456105668, 73.9609375 33.96192912211336, 73.9609375 42.75 M73.9609375 42.75 C29.60181108971355 42.75, -14.7573153205729 42.75, -73.9609375 42.75 M73.9609375 42.75 C36.84792105825211 42.75, -0.2650953834957761 42.75, -73.9609375 42.75 M-73.9609375 42.75 C-73.9609375 33.94821472451722, -73.9609375 25.14642944903444, -73.9609375 0 M-73.9609375 42.75 C-73.9609375 26.074045203011245, -73.9609375 9.39809040602249, -73.9609375 0" stroke="#9370DB" stroke-width="1.3" fill="none" stroke-dasharray="0 0"/></g><g class="label name" transform="translate(-13.7890625, -33.375)" style=""><foreignObject width="27.578125" height="24"><div xmlns="http://www.w3.org/1999/xhtml" style="display: table-cell; white-space: nowrap; line-height: 1.5; max-width: 125px; text-align: start;"><span class="nodeLabel"><p>Site</p></span></div></foreignObject></g><g class="label attribute-type" transform="translate(-61.4609375, 9.375)" style=""><foreignObject width="39.125" height="24"><div xmlns="http://www.w3.org/1999/xhtml" style="display: table-cell; white-space: nowrap; line-height: 1.5; max-width: 136px; text-align: start;"><span class="nodeLabel"><p>string</p></span></div></foreignObject></g><g class="label attribute-name" transform="translate(2.6640625, 9.375)" style=""><foreignObject width="12.453125" height="24"><div xmlns="http://www.w3.org/1999/xhtml" style="display: table-cell; white-space: nowrap; line-height: 1.5; max-width: 112px; text-align: start;"><span class="nodeLabel"><p>id</p></span></div></foreignObject></g><g class="label attribute-keys" transform="translate(40.1171875, 9.375)" style=""><foreignObject width="21.34375" height="24"><div xmlns="http://www.w3.org/1999/xhtml" style="display: table-cell; white-space: nowrap; line-height: 1.5; max-width: 121px; text-align: start;"><span class="nodeLabel"><p>PK</p></span></div></foreignObject></g><g class="label attribute-comment" transform="translate(86.4609375, 9.375)" style=""><foreignObject width="0" height="0"><div xmlns="http://www.w3.org/1999/xhtml" style="display: table-cell; white-space: nowrap; line-height: 1.5; max-width: 100px; text-align: start;"><span class="nodeLabel"></span></div></foreignObject></g><g class="divider"><path d="M-73.9609375 -0.00005 L-73.9609375 0.00005 L73.9609375 0.00005 L73.9609375 -0.00005" stroke="none" stroke-width="0" fill="#ECECFF" fill-rule="evenodd"/><path d="M-73.9609375 -0.00005 C-73.9609375 -0.000015302485600975003, -73.9609375 0.000019395028798049997, -73.9609375 0.00005 M-73.9609375 -0.00005 C-73.9609375 -0.000010563385791476422, -73.9609375 0.000028873228417047158, -73.9609375 0.00005 M-73.9609375 0.00005 C-42.62821228728393 0.00005, -11.295487074567866 0.00005, 73.9609375 0.00005 M-73.9609375 0.00005 C-39.533289508038436 0.00005, -5.105641516076872 0.00005, 73.9609375 0.00005 M73.9609375 0.00005 C73.9609375 0.000011041299156025986, 73.9609375 -0.00002791740168794803, 73.9609375 -0.00005 M73.9609375 0.00005 C73.9609375 0.000010765381900128, 73.9609375 -0.000028469236199744003, 73.9609375 -0.00005 M73.9609375 -0.00005 C29.182403697910033 -0.00005, -15.596130104179935 -0.00005, -73.9609375 -0.00005 M73.9609375 -0.00005 C21.676664772287523 -0.00005, -30.607607955424953 -0.00005, -73.9609375 -0.00005" stroke="#9370DB" stroke-width="1.3" fill="none" stroke-dasharray="0 0"/></g><g class="divider"><path d="M-9.8359875 0 L-9.8358875 0 L-9.8358875 42.75 L-9.8359875 42.75" stroke="none" stroke-width="0" fill="#ECECFF" fill-rule="evenodd"/><path d="M-9.8359875 0 C-9.835959805415403 0, -9.835932110830806 0, -9.8358875 0 M-9.8359875 0 C-9.835953162155649 0, -9.8359188243113 0, -9.8358875 0 M-9.8358875 0 C-9.8358875 13.192248456329818, -9.8358875 26.384496912659635, -9.8358875 42.75 M-9.8358875 0 C-9.8358875 11.627822114674137, -9.8358875 23.255644229348274, -9.8358875 42.75 M-9.8358875 42.75 C-9.835910615147123 42.75, -9.835933730294245 42.75, -9.8359875 42.75 M-9.8358875 42.75 C-9.835925731128267 42.75, -9.835963962256534 42.75, -9.8359875 42.75 M-9.8359875 42.75 C-9.8359875 30.263381659651415, -9.8359875 17.776763319302834, -9.8359875 0 M-9.8359875 42.75 C-9.8359875 26.960956889016202, -9.8359875 11.171913778032405, -9.8359875 0" stroke="#9370DB" stroke-width="1.3" fill="none" stroke-dasharray="0 0"/></g><g class="divider"><path d="M27.6171375 0 L27.6172375 0 L27.6172375 42.75 L27.6171375 42.75" stroke="none" stroke-width="0" fill="#ECECFF" fill-rule="evenodd"/><path d="M27.6171375 0 C27.61716739006161 0, 27.61719728012322 0, 27.6172375 0 M27.6171375 0 C27.61717424325737 0, 27.617210986514742 0, 27.6172375 0 M27.6172375 0 C27.6172375 9.822171245018641, 27.6172375 19.644342490037282, 27.6172375 42.75 M27.6172375 0 C27.6172375 12.149381369095096, 27.6172375 24.29876273819019, 27.6172375 42.75 M27.6172375 42.75 C27.617205657667988 42.75, 27.617173815335974 42.75, 27.6171375 42.75 M27.6172375 42.75 C27.61720459634045 42.75, 27.617171692680902 42.75, 27.6171375 42.75 M27.6171375 42.75 C27.6171375 28.8710460880447, 27.6171375 14.992092176089404, 27.6171375 0 M27.6171375 42.75 C27.6171375 30.030789059253493, 27.6171375 17.31157811850699, 27.6171375 0" stroke="#9370DB" stroke-width="1.3" fill="none" stroke-dasharray="0 0"/></g><g class="divider"><path d="M-73.9609375 -0.00005 L-73.9609375 0.00005 L73.9609375 0.00005 L73.9609375 -0.00005" stroke="none" stroke-width="0" fill="#ECECFF" fill-rule="evenodd"/><path d="M-73.9609375 -0.00005 C-73.9609375 -0.000017194414073929657, -73.9609375 0.00001561117185214069, -73.9609375 0.00005 M-73.9609375 -0.00005 C-73.9609375 -0.000016936619748044633, -73.9609375 0.000016126760503910736, -73.9609375 0.00005 M-73.9609375 0.00005 C-26.5214962956842 0.00005, 20.917944908631597 0.00005, 73.9609375 0.00005 M-73.9609375 0.00005 C-15.958515116407838 0.00005, 42.04390726718432 0.00005, 73.9609375 0.00005 M73.9609375 0.00005 C73.9609375 0.000028810323522249545, 73.9609375 0.000007620647044499087, 73.9609375 -0.00005 M73.9609375 0.00005 C73.9609375 0.000011166632112207576, 73.9609375 -0.00002766673577558485, 73.9609375 -0.00005 M73.9609375 -0.00005 C22.05309744923869 -0.00005, -29.854742601522616 -0.00005, -73.9609375 -0.00005 M73.9609375 -0.00005 C34.962425653110635 -0.00005, -4.036086193778729 -0.00005, -73.9609375 -0.00005" stroke="#9370DB" stroke-width="1.3" fill="none" stroke-dasharray="0 0"/></g></g><g class="node default" id="my-svg-entity-PointOfInterest-1" data-look="classic" transform="translate(374.28125, 50.75)"><g class="outer-path" style=""><path d="M-78.359375 -42.75 L78.359375 -42.75 L78.359375 42.75 L-78.359375 42.75" stroke="none" stroke-width="0" fill="#ECECFF"/><path d="M-78.359375 -42.75 C-44.30914332292301 -42.75, -10.258911645846027 -42.75, 78.359375 -42.75 M-78.359375 -42.75 C-18.434085309368136 -42.75, 41.49120438126373 -42.75, 78.359375 -42.75 M78.359375 -42.75 C78.359375 -12.503600177768341, 78.359375 17.742799644463318, 78.359375 42.75 M78.359375 -42.75 C78.359375 -17.116778831949947, 78.359375 8.516442336100106, 78.359375 42.75 M78.359375 42.75 C19.441558587384165 42.75, -39.47625782523167 42.75, -78.359375 42.75 M78.359375 42.75 C25.222669749852543 42.75, -27.914035500294915 42.75, -78.359375 42.75 M-78.359375 42.75 C-78.359375 22.278387448733938, -78.359375 1.806774897467875, -78.359375 -42.75 M-78.359375 42.75 C-78.359375 19.968910618539642, -78.359375 -2.8121787629207162, -78.359375 -42.75" stroke="#9370DB" stroke-width="1.3" fill="none" stroke-dasharray="0 0"/></g><g style="" class="row-rect-odd"><path d="M-78.359375 0 L78.359375 0 L78.359375 42.75 L-78.359375 42.75" stroke="none" stroke-width="0" fill="hsl(240, 100%, 100%)"/><path d="M-78.359375 0 C-18.545221115633254 0, 41.26893276873349 0, 78.359375 0 M-78.359375 0 C-40.463720516802056 0, -2.5680660336041115 0, 78.359375 0 M78.359375 0 C78.359375 13.030879578792707, 78.359375 26.061759157585414, 78.359375 42.75 M78.359375 0 C78.359375 16.85944833283952, 78.359375 33.71889666567904, 78.359375 42.75 M78.359375 42.75 C23.015071508119462 42.75, -32.329231983761076 42.75, -78.359375 42.75 M78.359375 42.75 C28.00418469029647 42.75, -22.35100561940706 42.75, -78.359375 42.75 M-78.359375 42.75 C-78.359375 31.757521471838253, -78.359375 20.76504294367651, -78.359375 0 M-78.359375 42.75 C-78.359375 26.94170038653342, -78.359375 11.133400773066839, -78.359375 0" stroke="#9370DB" stroke-width="1.3" fill="none" stroke-dasharray="0 0"/></g><g class="label name" transform="translate(-53.359375, -33.375)" style=""><foreignObject width="106.71875" height="24"><div xmlns="http://www.w3.org/1999/xhtml" style="display: table-cell; white-space: nowrap; line-height: 1.5; max-width: 199px; text-align: start;"><span class="nodeLabel"><p>PointOfInterest</p></span></div></foreignObject></g><g class="label attribute-type" transform="translate(-65.859375, 9.375)" style=""><foreignObject width="39.125" height="24"><div xmlns="http://www.w3.org/1999/xhtml" style="display: table-cell; white-space: nowrap; line-height: 1.5; max-width: 136px; text-align: start;"><span class="nodeLabel"><p>string</p></span></div></foreignObject></g><g class="label attribute-name" transform="translate(1.1979166666666714, 9.375)" style=""><foreignObject width="12.453125" height="24"><div xmlns="http://www.w3.org/1999/xhtml" style="display: table-cell; white-space: nowrap; line-height: 1.5; max-width: 112px; text-align: start;"><span class="nodeLabel"><p>id</p></span></div></foreignObject></g><g class="label attribute-keys" transform="translate(41.58333333333334, 9.375)" style=""><foreignObject width="21.34375" height="24"><div xmlns="http://www.w3.org/1999/xhtml" style="display: table-cell; white-space: nowrap; line-height: 1.5; max-width: 121px; text-align: start;"><span class="nodeLabel"><p>PK</p></span></div></foreignObject></g><g class="label attribute-comment" transform="translate(90.859375, 9.375)" style=""><foreignObject width="0" height="0"><div xmlns="http://www.w3.org/1999/xhtml" style="display: table-cell; white-space: nowrap; line-height: 1.5; max-width: 100px; text-align: start;"><span class="nodeLabel"></span></div></foreignObject></g><g class="divider"><path d="M-78.359375 -0.00005 L-78.359375 0.00005 L78.359375 0.00005 L78.359375 -0.00005" stroke="none" stroke-width="0" fill="#ECECFF" fill-rule="evenodd"/><path d="M-78.359375 -0.00005 C-78.359375 -0.000021853211794635292, -78.359375 0.000006293576410729418, -78.359375 0.00005 M-78.359375 -0.00005 C-78.359375 -0.00002607776459671363, -78.359375 -0.0000021555291934272606, -78.359375 0.00005 M-78.359375 0.00005 C-35.12148233561356 0.00005, 8.116410328772886 0.00005, 78.359375 0.00005 M-78.359375 0.00005 C-29.549031009794682 0.00005, 19.261312980410636 0.00005, 78.359375 0.00005 M78.359375 0.00005 C78.359375 0.000026038113833534535, 78.359375 0.0000020762276670690673, 78.359375 -0.00005 M78.359375 0.00005 C78.359375 0.00002691053694383021, 78.359375 0.000003821073887660418, 78.359375 -0.00005 M78.359375 -0.00005 C26.67310581675408 -0.00005, -25.01316336649184 -0.00005, -78.359375 -0.00005 M78.359375 -0.00005 C20.000832974389503 -0.00005, -38.35770905122099 -0.00005, -78.359375 -0.00005" stroke="#9370DB" stroke-width="1.3" fill="none" stroke-dasharray="0 0"/></g><g class="divider"><path d="M-11.302133333333328 0 L-11.302033333333329 0 L-11.302033333333329 42.75 L-11.302133333333328 42.75" stroke="none" stroke-width="0" fill="#ECECFF" fill-rule="evenodd"/><path d="M-11.302133333333328 0 C-11.302105309645023 0, -11.30207728595672 0, -11.302033333333329 0 M-11.302133333333328 0 C-11.302108099784247 0, -11.302082866235168 0, -11.302033333333329 0 M-11.302033333333329 0 C-11.302033333333329 11.743564900986058, -11.302033333333329 23.487129801972117, -11.302033333333329 42.75 M-11.302033333333329 0 C-11.302033333333329 10.169528228348891, -11.302033333333329 20.339056456697783, -11.302033333333329 42.75 M-11.302033333333329 42.75 C-11.302061550870475 42.75, -11.30208976840762 42.75, -11.302133333333328 42.75 M-11.302033333333329 42.75 C-11.302060663481962 42.75, -11.302087993630595 42.75, -11.302133333333328 42.75 M-11.302133333333328 42.75 C-11.302133333333328 29.791410860972583, -11.302133333333328 16.832821721945162, -11.302133333333328 0 M-11.302133333333328 42.75 C-11.302133333333328 25.745605124314842, -11.302133333333328 8.741210248629685, -11.302133333333328 0" stroke="#9370DB" stroke-width="1.3" fill="none" stroke-dasharray="0 0"/></g><g class="divider"><path d="M29.08328333333334 0 L29.083383333333344 0 L29.083383333333344 42.75 L29.08328333333334 42.75" stroke="none" stroke-width="0" fill="#ECECFF" fill-rule="evenodd"/><path d="M29.08328333333334 0 C29.083322434777397 0, 29.083361536221457 0, 29.083383333333344 0 M29.08328333333334 0 C29.083321436815226 0, 29.08335954029711 0, 29.083383333333344 0 M29.083383333333344 0 C29.083383333333344 16.895758029496747, 29.083383333333344 33.791516058993494, 29.083383333333344 42.75 M29.083383333333344 0 C29.083383333333344 14.430877625442795, 29.083383333333344 28.86175525088559, 29.083383333333344 42.75 M29.083383333333344 42.75 C29.083361657550654 42.75, 29.083339981767963 42.75, 29.08328333333334 42.75 M29.083383333333344 42.75 C29.08335054085702 42.75, 29.083317748380694 42.75, 29.08328333333334 42.75 M29.08328333333334 42.75 C29.08328333333334 30.41944732298066, 29.08328333333334 18.088894645961314, 29.08328333333334 0 M29.08328333333334 42.75 C29.08328333333334 28.204091551090414, 29.08328333333334 13.658183102180832, 29.08328333333334 0" stroke="#9370DB" stroke-width="1.3" fill="none" stroke-dasharray="0 0"/></g><g class="divider"><path d="M-78.359375 -0.00005 L-78.359375 0.00005 L78.359375 0.00005 L78.359375 -0.00005" stroke="none" stroke-width="0" fill="#ECECFF" fill-rule="evenodd"/><path d="M-78.359375 -0.00005 C-78.359375 -0.000011851399132432758, -78.359375 0.000026297201735134486, -78.359375 0.00005 M-78.359375 -0.00005 C-78.359375 -0.000010716142055208983, -78.359375 0.000028567715889582037, -78.359375 0.00005 M-78.359375 0.00005 C-23.399572999327894 0.00005, 31.56022900134421 0.00005, 78.359375 0.00005 M-78.359375 0.00005 C-37.20105462902888 0.00005, 3.957265741942237 0.00005, 78.359375 0.00005 M78.359375 0.00005 C78.359375 0.000010666379769365622, 78.359375 -0.000028667240461268757, 78.359375 -0.00005 M78.359375 0.00005 C78.359375 0.000011531719116876298, 78.359375 -0.000026936561766247406, 78.359375 -0.00005 M78.359375 -0.00005 C21.453099558484162 -0.00005, -35.453175883031676 -0.00005, -78.359375 -0.00005 M78.359375 -0.00005 C23.38714576893375 -0.00005, -31.585083462132502 -0.00005, -78.359375 -0.00005" stroke="#9370DB" stroke-width="1.3" fill="none" stroke-dasharray="0 0"/></g></g><g class="node default" id="my-svg-entity-Settlement-2" data-look="classic" transform="translate(81.9609375, 237.25)"><g class="outer-path" style=""><path d="M-73.9609375 -42.75 L73.9609375 -42.75 L73.9609375 42.75 L-73.9609375 42.75" stroke="none" stroke-width="0" fill="#ECECFF"/><path d="M-73.9609375 -42.75 C-28.64674924043902 -42.75, 16.667439019121957 -42.75, 73.9609375 -42.75 M-73.9609375 -42.75 C-33.244977047157 -42.75, 7.470983405685999 -42.75, 73.9609375 -42.75 M73.9609375 -42.75 C73.9609375 -15.885905045501342, 73.9609375 10.978189908997315, 73.9609375 42.75 M73.9609375 -42.75 C73.9609375 -10.208960119391143, 73.9609375 22.332079761217713, 73.9609375 42.75 M73.9609375 42.75 C17.211616511392343 42.75, -39.537704477215314 42.75, -73.9609375 42.75 M73.9609375 42.75 C17.305844988195602 42.75, -39.349247523608796 42.75, -73.9609375 42.75 M-73.9609375 42.75 C-73.9609375 12.919694221972524, -73.9609375 -16.910611556054953, -73.9609375 -42.75 M-73.9609375 42.75 C-73.9609375 17.64439477741027, -73.9609375 -7.461210445179461, -73.9609375 -42.75" stroke="#9370DB" stroke-width="1.3" fill="none" stroke-dasharray="0 0"/></g><g style="" class="row-rect-odd"><path d="M-73.9609375 0 L73.9609375 0 L73.9609375 42.75 L-73.9609375 42.75" stroke="none" stroke-width="0" fill="hsl(240, 100%, 100%)"/><path d="M-73.9609375 0 C-42.776675277550936 0, -11.59241305510188 0, 73.9609375 0 M-73.9609375 0 C-41.071801587973255 0, -8.18266567594651 0, 73.9609375 0 M73.9609375 0 C73.9609375 11.261234273040186, 73.9609375 22.522468546080372, 73.9609375 42.75 M73.9609375 0 C73.9609375 10.716230501267681, 73.9609375 21.432461002535362, 73.9609375 42.75 M73.9609375 42.75 C15.177651739093697 42.75, -43.605634021812605 42.75, -73.9609375 42.75 M73.9609375 42.75 C40.06243537196381 42.75, 6.163933243927616 42.75, -73.9609375 42.75 M-73.9609375 42.75 C-73.9609375 27.00832343297727, -73.9609375 11.266646865954545, -73.9609375 0 M-73.9609375 42.75 C-73.9609375 26.083737481674316, -73.9609375 9.417474963348631, -73.9609375 0" stroke="#9370DB" stroke-width="1.3" fill="none" stroke-dasharray="0 0"/></g><g class="label name" transform="translate(-38.2421875, -33.375)" style=""><foreignObject width="76.484375" height="24"><div xmlns="http://www.w3.org/1999/xhtml" style="display: table-cell; white-space: nowrap; line-height: 1.5; max-width: 169px; text-align: start;"><span class="nodeLabel"><p>Settlement</p></span></div></foreignObject></g><g class="label attribute-type" transform="translate(-61.4609375, 9.375)" style=""><foreignObject width="39.125" height="24"><div xmlns="http://www.w3.org/1999/xhtml" style="display: table-cell; white-space: nowrap; line-height: 1.5; max-width: 136px; text-align: start;"><span class="nodeLabel"><p>string</p></span></div></foreignObject></g><g class="label attribute-name" transform="translate(2.6640625, 9.375)" style=""><foreignObject width="12.453125" height="24"><div xmlns="http://www.w3.org/1999/xhtml" style="display: table-cell; white-space: nowrap; line-height: 1.5; max-width: 112px; text-align: start;"><span class="nodeLabel"><p>id</p></span></div></foreignObject></g><g class="label attribute-keys" transform="translate(40.1171875, 9.375)" style=""><foreignObject width="21.34375" height="24"><div xmlns="http://www.w3.org/1999/xhtml" style="display: table-cell; white-space: nowrap; line-height: 1.5; max-width: 121px; text-align: start;"><span class="nodeLabel"><p>PK</p></span></div></foreignObject></g><g class="label attribute-comment" transform="translate(86.4609375, 9.375)" style=""><foreignObject width="0" height="0"><div xmlns="http://www.w3.org/1999/xhtml" style="display: table-cell; white-space: nowrap; line-height: 1.5; max-width: 100px; text-align: start;"><span class="nodeLabel"></span></div></foreignObject></g><g class="divider"><path d="M-73.9609375 -0.00005 L-73.9609375 0.00005 L73.9609375 0.00005 L73.9609375 -0.00005" stroke="none" stroke-width="0" fill="#ECECFF" fill-rule="evenodd"/><path d="M-73.9609375 -0.00005 C-73.9609375 -0.00001712409559092479, -73.9609375 0.00001575180881815042, -73.9609375 0.00005 M-73.9609375 -0.00005 C-73.9609375 -0.000020451192269281115, -73.9609375 0.000009097615461437773, -73.9609375 0.00005 M-73.9609375 0.00005 C-39.38058389736744 0.00005, -4.800230294734874 0.00005, 73.9609375 0.00005 M-73.9609375 0.00005 C-22.8734436873614 0.00005, 28.214050125277197 0.00005, 73.9609375 0.00005 M73.9609375 0.00005 C73.9609375 0.00002073678713224081, 73.9609375 -0.000008526425735518385, 73.9609375 -0.00005 M73.9609375 0.00005 C73.9609375 0.000010752764811533652, 73.9609375 -0.000028494470376932698, 73.9609375 -0.00005 M73.9609375 -0.00005 C37.752809929629485 -0.00005, 1.544682359258971 -0.00005, -73.9609375 -0.00005 M73.9609375 -0.00005 C27.59539307491891 -0.00005, -18.77015135016218 -0.00005, -73.9609375 -0.00005" stroke="#9370DB" stroke-width="1.3" fill="none" stroke-dasharray="0 0"/></g><g class="divider"><path d="M-9.8359875 0 L-9.8358875 0 L-9.8358875 42.75 L-9.8359875 42.75" stroke="none" stroke-width="0" fill="#ECECFF" fill-rule="evenodd"/><path d="M-9.8359875 0 C-9.83595636219904 0, -9.835925224398082 0, -9.8358875 0 M-9.8359875 0 C-9.835958112585892 0, -9.835928725171785 0, -9.8358875 0 M-9.8358875 0 C-9.8358875 11.056640500765218, -9.8358875 22.113281001530435, -9.8358875 42.75 M-9.8358875 0 C-9.8358875 10.340065192314556, -9.8358875 20.680130384629113, -9.8358875 42.75 M-9.8358875 42.75 C-9.835922970998835 42.75, -9.83595844199767 42.75, -9.8359875 42.75 M-9.8358875 42.75 C-9.835926242917962 42.75, -9.835964985835925 42.75, -9.8359875 42.75 M-9.8359875 42.75 C-9.8359875 33.54575860867746, -9.8359875 24.341517217354916, -9.8359875 0 M-9.8359875 42.75 C-9.8359875 31.755597636141793, -9.8359875 20.761195272283583, -9.8359875 0" stroke="#9370DB" stroke-width="1.3" fill="none" stroke-dasharray="0 0"/></g><g class="divider"><path d="M27.6171375 0 L27.6172375 0 L27.6172375 42.75 L27.6171375 42.75" stroke="none" stroke-width="0" fill="#ECECFF" fill-rule="evenodd"/><path d="M27.6171375 0 C27.617174626215895 0, 27.617211752431796 0, 27.6172375 0 M27.6171375 0 C27.617164377568436 0, 27.617191255136873 0, 27.6172375 0 M27.6172375 0 C27.6172375 9.347049060805219, 27.6172375 18.694098121610438, 27.6172375 42.75 M27.6172375 0 C27.6172375 16.826927896642818, 27.6172375 33.653855793285636, 27.6172375 42.75 M27.6172375 42.75 C27.617215157161603 42.75, 27.617192814323204 42.75, 27.6171375 42.75 M27.6172375 42.75 C27.61720253191029 42.75, 27.617167563820576 42.75, 27.6171375 42.75 M27.6171375 42.75 C27.6171375 31.49907644432799, 27.6171375 20.248152888655977, 27.6171375 0 M27.6171375 42.75 C27.6171375 32.02021183109751, 27.6171375 21.290423662195018, 27.6171375 0" stroke="#9370DB" stroke-width="1.3" fill="none" stroke-dasharray="0 0"/></g><g class="divider"><path d="M-73.9609375 -0.00005 L-73.9609375 0.00005 L73.9609375 0.00005 L73.9609375 -0.00005" stroke="none" stroke-width="0" fill="#ECECFF" fill-rule="evenodd"/><path d="M-73.9609375 -0.00005 C-73.9609375 -0.000013986098279865987, -73.9609375 0.00002202780344026803, -73.9609375 0.00005 M-73.9609375 -0.00005 C-73.9609375 -0.000023254868247355456, -73.9609375 0.00000349026350528909, -73.9609375 0.00005 M-73.9609375 0.00005 C-28.51735415460243 0.00005, 16.92622919079514 0.00005, 73.9609375 0.00005 M-73.9609375 0.00005 C-15.112896662624664 0.00005, 43.73514417475067 0.00005, 73.9609375 0.00005 M73.9609375 0.00005 C73.9609375 0.00001368067631769221, 73.9609375 -0.000022638647364615584, 73.9609375 -0.00005 M73.9609375 0.00005 C73.9609375 0.00001740217711643629, 73.9609375 -0.00001519564576712742, 73.9609375 -0.00005 M73.9609375 -0.00005 C35.775053838344576 -0.00005, -2.4108298233108485 -0.00005, -73.9609375 -0.00005 M73.9609375 -0.00005 C17.950350027560745 -0.00005, -38.06023744487851 -0.00005, -73.9609375 -0.00005" stroke="#9370DB" stroke-width="1.3" fill="none" stroke-dasharray="0 0"/></g></g><g class="node default" id="my-svg-entity-RegionLatticeMapping-3" data-look="classic" transform="translate(697.25, 50.75)"><g class="outer-path" style=""><path d="M-104.609375 -42.75 L104.609375 -42.75 L104.609375 42.75 L-104.609375 42.75" stroke="none" stroke-width="0" fill="#ECECFF"/><path d="M-104.609375 -42.75 C-49.45421065150787 -42.75, 5.700953696984257 -42.75, 104.609375 -42.75 M-104.609375 -42.75 C-37.25469327948156 -42.75, 30.099988441036885 -42.75, 104.609375 -42.75 M104.609375 -42.75 C104.609375 -9.266804902891586, 104.609375 24.216390194216828, 104.609375 42.75 M104.609375 -42.75 C104.609375 -8.717254459382964, 104.609375 25.31549108123407, 104.609375 42.75 M104.609375 42.75 C44.39239911433909 42.75, -15.824576771321816 42.75, -104.609375 42.75 M104.609375 42.75 C47.60221481054647 42.75, -9.404945378907058 42.75, -104.609375 42.75 M-104.609375 42.75 C-104.609375 14.162259655664869, -104.609375 -14.425480688670262, -104.609375 -42.75 M-104.609375 42.75 C-104.609375 19.822265500673772, -104.609375 -3.105468998652455, -104.609375 -42.75" stroke="#9370DB" stroke-width="1.3" fill="none" stroke-dasharray="0 0"/></g><g style="" class="row-rect-odd"><path d="M-104.609375 0 L104.609375 0 L104.609375 42.75 L-104.609375 42.75" stroke="none" stroke-width="0" fill="hsl(240, 100%, 100%)"/><path d="M-104.609375 0 C-37.29779722941636 0, 30.01378054116728 0, 104.609375 0 M-104.609375 0 C-59.478041980292815 0, -14.34670896058563 0, 104.609375 0 M104.609375 0 C104.609375 16.819243906785417, 104.609375 33.63848781357083, 104.609375 42.75 M104.609375 0 C104.609375 8.659254766745738, 104.609375 17.318509533491476, 104.609375 42.75 M104.609375 42.75 C30.14998622682039 42.75, -44.30940254635922 42.75, -104.609375 42.75 M104.609375 42.75 C22.472617159345432 42.75, -59.664140681309135 42.75, -104.609375 42.75 M-104.609375 42.75 C-104.609375 28.11474873367718, -104.609375 13.479497467354367, -104.609375 0 M-104.609375 42.75 C-104.609375 32.94851187522492, -104.609375 23.147023750449844, -104.609375 0" stroke="#9370DB" stroke-width="1.3" fill="none" stroke-dasharray="0 0"/></g><g class="label name" transform="translate(-79.609375, -33.375)" style=""><foreignObject width="159.21875" height="24"><div xmlns="http://www.w3.org/1999/xhtml" style="display: table-cell; white-space: nowrap; line-height: 1.5; max-width: 248px; text-align: start;"><span class="nodeLabel"><p>RegionLatticeMapping</p></span></div></foreignObject></g><g class="label attribute-type" transform="translate(-92.109375, 9.375)" style=""><foreignObject width="39.125" height="24"><div xmlns="http://www.w3.org/1999/xhtml" style="display: table-cell; white-space: nowrap; line-height: 1.5; max-width: 136px; text-align: start;"><span class="nodeLabel"><p>string</p></span></div></foreignObject></g><g class="label attribute-name" transform="translate(-7.552083333333329, 9.375)" style=""><foreignObject width="12.453125" height="24"><div xmlns="http://www.w3.org/1999/xhtml" style="display: table-cell; white-space: nowrap; line-height: 1.5; max-width: 112px; text-align: start;"><span class="nodeLabel"><p>id</p></span></div></foreignObject></g><g class="label attribute-keys" transform="translate(50.33333333333334, 9.375)" style=""><foreignObject width="21.34375" height="24"><div xmlns="http://www.w3.org/1999/xhtml" style="display: table-cell; white-space: nowrap; line-height: 1.5; max-width: 121px; text-align: start;"><span class="nodeLabel"><p>PK</p></span></div></foreignObject></g><g class="label attribute-comment" transform="translate(117.109375, 9.375)" style=""><foreignObject width="0" height="0"><div xmlns="http://www.w3.org/1999/xhtml" style="display: table-cell; white-space: nowrap; line-height: 1.5; max-width: 100px; text-align: start;"><span class="nodeLabel"></span></div></foreignObject></g><g class="divider"><path d="M-104.609375 -0.00005 L-104.609375 0.00005 L104.609375 0.00005 L104.609375 -0.00005" stroke="none" stroke-width="0" fill="#ECECFF" fill-rule="evenodd"/><path d="M-104.609375 -0.00005 C-104.609375 -0.00002946823763129701, -104.609375 -0.00000893647526259402, -104.609375 0.00005 M-104.609375 -0.00005 C-104.609375 -0.000025496017125204596, -104.609375 -9.920342504091901e-7, -104.609375 0.00005 M-104.609375 0.00005 C-43.96626933888805 0.00005, 16.676836322223906 0.00005, 104.609375 0.00005 M-104.609375 0.00005 C-62.19043002094192 0.00005, -19.771485041883835 0.00005, 104.609375 0.00005 M104.609375 0.00005 C104.609375 0.000013041419577838693, 104.609375 -0.000023917160844322617, 104.609375 -0.00005 M104.609375 0.00005 C104.609375 0.000015578121570269163, 104.609375 -0.000018843756859461676, 104.609375 -0.00005 M104.609375 -0.00005 C52.14349946326037 -0.00005, -0.322376073479262 -0.00005, -104.609375 -0.00005 M104.609375 -0.00005 C58.7153032747949 -0.00005, 12.821231549589797 -0.00005, -104.609375 -0.00005" stroke="#9370DB" stroke-width="1.3" fill="none" stroke-dasharray="0 0"/></g><g class="divider"><path d="M-20.05213333333333 0 L-20.052033333333327 0 L-20.052033333333327 42.75 L-20.05213333333333 42.75" stroke="none" stroke-width="0" fill="#ECECFF" fill-rule="evenodd"/><path d="M-20.05213333333333 0 C-20.05211120915583 0, -20.052089084978327 0, -20.052033333333327 0 M-20.05213333333333 0 C-20.052104436315823 0, -20.052075539298315 0, -20.052033333333327 0 M-20.052033333333327 0 C-20.052033333333327 10.040232740682454, -20.052033333333327 20.080465481364907, -20.052033333333327 42.75 M-20.052033333333327 0 C-20.052033333333327 8.712473576934903, -20.052033333333327 17.424947153869805, -20.052033333333327 42.75 M-20.052033333333327 42.75 C-20.05205956481295 42.75, -20.052085796292573 42.75, -20.05213333333333 42.75 M-20.052033333333327 42.75 C-20.052062465964188 42.75, -20.05209159859505 42.75, -20.05213333333333 42.75 M-20.05213333333333 42.75 C-20.05213333333333 32.69951419042157, -20.05213333333333 22.64902838084313, -20.05213333333333 0 M-20.05213333333333 42.75 C-20.05213333333333 28.92607799532417, -20.05213333333333 15.102155990648342, -20.05213333333333 0" stroke="#9370DB" stroke-width="1.3" fill="none" stroke-dasharray="0 0"/></g><g class="divider"><path d="M37.83328333333334 0 L37.833383333333344 0 L37.833383333333344 42.75 L37.83328333333334 42.75" stroke="none" stroke-width="0" fill="#ECECFF" fill-rule="evenodd"/><path d="M37.83328333333334 0 C37.833312088435434 0, 37.83334084353753 0, 37.833383333333344 0 M37.83328333333334 0 C37.833320556912206 0, 37.83335778049107 0, 37.833383333333344 0 M37.833383333333344 0 C37.833383333333344 12.606605408564148, 37.833383333333344 25.213210817128296, 37.833383333333344 42.75 M37.833383333333344 0 C37.833383333333344 16.24479333657827, 37.833383333333344 32.48958667315654, 37.833383333333344 42.75 M37.833383333333344 42.75 C37.833354880388754 42.75, 37.833326427444156 42.75, 37.83328333333334 42.75 M37.833383333333344 42.75 C37.83334695259571 42.75, 37.83331057185808 42.75, 37.83328333333334 42.75 M37.83328333333334 42.75 C37.83328333333334 27.00433401678251, 37.83328333333334 11.258668033565023, 37.83328333333334 0 M37.83328333333334 42.75 C37.83328333333334 29.69247714565033, 37.83328333333334 16.634954291300655, 37.83328333333334 0" stroke="#9370DB" stroke-width="1.3" fill="none" stroke-dasharray="0 0"/></g><g class="divider"><path d="M-104.609375 -0.00005 L-104.609375 0.00005 L104.609375 0.00005 L104.609375 -0.00005" stroke="none" stroke-width="0" fill="#ECECFF" fill-rule="evenodd"/><path d="M-104.609375 -0.00005 C-104.609375 -0.000014020964486990881, -104.609375 0.00002195807102601824, -104.609375 0.00005 M-104.609375 -0.00005 C-104.609375 -0.000028195715648485005, -104.609375 -0.000006391431296970008, -104.609375 0.00005 M-104.609375 0.00005 C-52.14338979591744 0.00005, 0.3225954081651139 0.00005, 104.609375 0.00005 M-104.609375 0.00005 C-29.92008327940593 0.00005, 44.76920844118814 0.00005, 104.609375 0.00005 M104.609375 0.00005 C104.609375 0.00002112945774412926, 104.609375 -0.000007741084511741483, 104.609375 -0.00005 M104.609375 0.00005 C104.609375 0.000019745702090327494, 104.609375 -0.000010508595819345015, 104.609375 -0.00005 M104.609375 -0.00005 C35.89695936072931 -0.00005, -32.815456278541376 -0.00005, -104.609375 -0.00005 M104.609375 -0.00005 C33.3365803402837 -0.00005, -37.936214319432594 -0.00005, -104.609375 -0.00005" stroke="#9370DB" stroke-width="1.3" fill="none" stroke-dasharray="0 0"/></g></g><g class="node default" id="my-svg-entity-AtlasConnection-4" data-look="classic" transform="translate(1025.1171875, 50.75)"><g class="outer-path" style=""><path d="M-83.2578125 -42.75 L83.2578125 -42.75 L83.2578125 42.75 L-83.2578125 42.75" stroke="none" stroke-width="0" fill="#ECECFF"/><path d="M-83.2578125 -42.75 C-40.367168283423084 -42.75, 2.523475933153833 -42.75, 83.2578125 -42.75 M-83.2578125 -42.75 C-47.61702965096989 -42.75, -11.97624680193978 -42.75, 83.2578125 -42.75 M83.2578125 -42.75 C83.2578125 -16.43146652516884, 83.2578125 9.88706694966232, 83.2578125 42.75 M83.2578125 -42.75 C83.2578125 -16.445542527953847, 83.2578125 9.858914944092305, 83.2578125 42.75 M83.2578125 42.75 C26.45354021645619 42.75, -30.35073206708762 42.75, -83.2578125 42.75 M83.2578125 42.75 C38.517107072215786 42.75, -6.223598355568427 42.75, -83.2578125 42.75 M-83.2578125 42.75 C-83.2578125 25.008155928240093, -83.2578125 7.266311856480186, -83.2578125 -42.75 M-83.2578125 42.75 C-83.2578125 12.587515143876818, -83.2578125 -17.574969712246364, -83.2578125 -42.75" stroke="#9370DB" stroke-width="1.3" fill="none" stroke-dasharray="0 0"/></g><g style="" class="row-rect-odd"><path d="M-83.2578125 0 L83.2578125 0 L83.2578125 42.75 L-83.2578125 42.75" stroke="none" stroke-width="0" fill="hsl(240, 100%, 100%)"/><path d="M-83.2578125 0 C-49.09409196413658 0, -14.930371428273162 0, 83.2578125 0 M-83.2578125 0 C-27.34664473855876 0, 28.564523022882483 0, 83.2578125 0 M83.2578125 0 C83.2578125 11.83383883579901, 83.2578125 23.66767767159802, 83.2578125 42.75 M83.2578125 0 C83.2578125 9.465727934363612, 83.2578125 18.931455868727223, 83.2578125 42.75 M83.2578125 42.75 C20.694448558710157 42.75, -41.86891538257969 42.75, -83.2578125 42.75 M83.2578125 42.75 C31.291367805002444 42.75, -20.67507688999511 42.75, -83.2578125 42.75 M-83.2578125 42.75 C-83.2578125 31.57893570304354, -83.2578125 20.407871406087082, -83.2578125 0 M-83.2578125 42.75 C-83.2578125 27.161004053912265, -83.2578125 11.57200810782453, -83.2578125 0" stroke="#9370DB" stroke-width="1.3" fill="none" stroke-dasharray="0 0"/></g><g class="label name" transform="translate(-58.2578125, -33.375)" style=""><foreignObject width="116.515625" height="24"><div xmlns="http://www.w3.org/1999/xhtml" style="display: table-cell; white-space: nowrap; line-height: 1.5; max-width: 208px; text-align: start;"><span class="nodeLabel"><p>AtlasConnection</p></span></div></foreignObject></g><g class="label attribute-type" transform="translate(-70.7578125, 9.375)" style=""><foreignObject width="39.125" height="24"><div xmlns="http://www.w3.org/1999/xhtml" style="display: table-cell; white-space: nowrap; line-height: 1.5; max-width: 136px; text-align: start;"><span class="nodeLabel"><p>string</p></span></div></foreignObject></g><g class="label attribute-name" transform="translate(-0.4348958333333286, 9.375)" style=""><foreignObject width="12.453125" height="24"><div xmlns="http://www.w3.org/1999/xhtml" style="display: table-cell; white-space: nowrap; line-height: 1.5; max-width: 112px; text-align: start;"><span class="nodeLabel"><p>id</p></span></div></foreignObject></g><g class="label attribute-keys" transform="translate(43.21614583333334, 9.375)" style=""><foreignObject width="21.34375" height="24"><div xmlns="http://www.w3.org/1999/xhtml" style="display: table-cell; white-space: nowrap; line-height: 1.5; max-width: 121px; text-align: start;"><span class="nodeLabel"><p>PK</p></span></div></foreignObject></g><g class="label attribute-comment" transform="translate(95.7578125, 9.375)" style=""><foreignObject width="0" height="0"><div xmlns="http://www.w3.org/1999/xhtml" style="display: table-cell; white-space: nowrap; line-height: 1.5; max-width: 100px; text-align: start;"><span class="nodeLabel"></span></div></foreignObject></g><g class="divider"><path d="M-83.2578125 -0.00005 L-83.2578125 0.00005 L83.2578125 0.00005 L83.2578125 -0.00005" stroke="none" stroke-width="0" fill="#ECECFF" fill-rule="evenodd"/><path d="M-83.2578125 -0.00005 C-83.2578125 -0.000012676984270185577, -83.2578125 0.000024646031459628848, -83.2578125 0.00005 M-83.2578125 -0.00005 C-83.2578125 -0.000024530820231344448, -83.2578125 9.38359537311107e-7, -83.2578125 0.00005 M-83.2578125 0.00005 C-48.61782123396549 0.00005, -13.977829967930987 0.00005, 83.2578125 0.00005 M-83.2578125 0.00005 C-31.289751119267045 0.00005, 20.67831026146591 0.00005, 83.2578125 0.00005 M83.2578125 0.00005 C83.2578125 0.000012741297533664589, 83.2578125 -0.000024517404932670825, 83.2578125 -0.00005 M83.2578125 0.00005 C83.2578125 0.000023751392450053205, 83.2578125 -0.000002497215099893592, 83.2578125 -0.00005 M83.2578125 -0.00005 C40.88231497321896 -0.00005, -1.4931825535620789 -0.00005, -83.2578125 -0.00005 M83.2578125 -0.00005 C25.094793200257968 -0.00005, -33.068226099484065 -0.00005, -83.2578125 -0.00005" stroke="#9370DB" stroke-width="1.3" fill="none" stroke-dasharray="0 0"/></g><g class="divider"><path d="M-12.934945833333328 0 L-12.934845833333329 0 L-12.934845833333329 42.75 L-12.934945833333328 42.75" stroke="none" stroke-width="0" fill="#ECECFF" fill-rule="evenodd"/><path d="M-12.934945833333328 0 C-12.93490609603848 0, -12.93486635874363 0, -12.934845833333329 0 M-12.934945833333328 0 C-12.934912050599081 0, -12.934878267864832 0, -12.934845833333329 0 M-12.934845833333329 0 C-12.934845833333329 13.147988582093474, -12.934845833333329 26.295977164186947, -12.934845833333329 42.75 M-12.934845833333329 0 C-12.934845833333329 10.91535466488413, -12.934845833333329 21.83070932976826, -12.934845833333329 42.75 M-12.934845833333329 42.75 C-12.934881802141913 42.75, -12.934917770950497 42.75, -12.934945833333328 42.75 M-12.934845833333329 42.75 C-12.934882477495437 42.75, -12.934919121657543 42.75, -12.934945833333328 42.75 M-12.934945833333328 42.75 C-12.934945833333328 32.75868498986811, -12.934945833333328 22.767369979736216, -12.934945833333328 0 M-12.934945833333328 42.75 C-12.934945833333328 32.68571131729296, -12.934945833333328 22.621422634585926, -12.934945833333328 0" stroke="#9370DB" stroke-width="1.3" fill="none" stroke-dasharray="0 0"/></g><g class="divider"><path d="M30.71609583333334 0 L30.716195833333344 0 L30.716195833333344 42.75 L30.71609583333334 42.75" stroke="none" stroke-width="0" fill="#ECECFF" fill-rule="evenodd"/><path d="M30.71609583333334 0 C30.716126993115612 0, 30.71615815289788 0, 30.716195833333344 0 M30.71609583333334 0 C30.71612314485057 0, 30.716150456367803 0, 30.716195833333344 0 M30.716195833333344 0 C30.716195833333344 15.372305130422836, 30.716195833333344 30.744610260845672, 30.716195833333344 42.75 M30.716195833333344 0 C30.716195833333344 13.423823788103693, 30.716195833333344 26.847647576207386, 30.716195833333344 42.75 M30.716195833333344 42.75 C30.716158809997587 42.75, 30.716121786661827 42.75, 30.71609583333334 42.75 M30.716195833333344 42.75 C30.716159397336757 42.75, 30.716122961340172 42.75, 30.71609583333334 42.75 M30.71609583333334 42.75 C30.71609583333334 28.887479635425503, 30.71609583333334 15.024959270851006, 30.71609583333334 0 M30.71609583333334 42.75 C30.71609583333334 30.644048933863846, 30.71609583333334 18.538097867727693, 30.71609583333334 0" stroke="#9370DB" stroke-width="1.3" fill="none" stroke-dasharray="0 0"/></g><g class="divider"><path d="M-83.2578125 -0.00005 L-83.2578125 0.00005 L83.2578125 0.00005 L83.2578125 -0.00005" stroke="none" stroke-width="0" fill="#ECECFF" fill-rule="evenodd"/><path d="M-83.2578125 -0.00005 C-83.2578125 -0.00002922072301998697, -83.2578125 -0.00000844144603997394, -83.2578125 0.00005 M-83.2578125 -0.00005 C-83.2578125 -0.000024282934480141877, -83.2578125 0.0000014341310397162485, -83.2578125 0.00005 M-83.2578125 0.00005 C-47.78332174282356 0.00005, -12.30883098564712 0.00005, 83.2578125 0.00005 M-83.2578125 0.00005 C-30.876847175590754 0.00005, 21.504118148818492 0.00005, 83.2578125 0.00005 M83.2578125 0.00005 C83.2578125 0.000017345413907075027, 83.2578125 -0.000015309172185849948, 83.2578125 -0.00005 M83.2578125 0.00005 C83.2578125 0.00001228634883239044, 83.2578125 -0.00002542730233521912, 83.2578125 -0.00005 M83.2578125 -0.00005 C21.015388258749063 -0.00005, -41.227035982501874 -0.00005, -83.2578125 -0.00005 M83.2578125 -0.00005 C43.39975905433618 -0.00005, 3.541705608672359 -0.00005, -83.2578125 -0.00005" stroke="#9370DB" stroke-width="1.3" fill="none" stroke-dasharray="0 0"/></g></g></g></g></g><defs><filter id="my-svg-drop-shadow" height="130%" width="130%"><feDropShadow dx="4" dy="4" stdDeviation="0" flood-opacity="0.06" flood-color="#000000"/></filter></defs><defs><filter id="my-svg-drop-shadow-small" height="150%" width="150%"><feDropShadow dx="2" dy="2" stdDeviation="0" flood-opacity="0.06" flood-color="#000000"/></filter></defs></svg>