<svg id="my-svg" width="100%" xmlns="http://www.w3.org/2000/svg" xmlns:xlink="http://www.w3.org/1999/xlink" class="erDiagram" style="max-width: 589.438px; background-color: transparent;" viewBox="0 0 589.4375 474.5" role="graphics-document document" aria-roledescription="er"><style>#my-svg{font-family:"trebuchet ms",verdana,arial,sans-serif;font-size:16px;fill:#333;}@keyframes edge-animation-frame{from{stroke-dashoffset:0;}}@keyframes dash{to{stroke-dashoffset:0;}}#my-svg .edge-animation-slow{stroke-dasharray:9,5!important;stroke-dashoffset:900;animation:dash 50s linear infinite;stroke-linecap:round;}#my-svg .edge-animation-fast{stroke-dasharray:9,5!important;stroke-dashoffset:900;animation:dash 20s linear infinite;stroke-linecap:round;}#my-svg .error-icon{fill:#552222;}#my-svg .error-text{fill:#552222;stroke:#552222;}#my-svg .edge-thickness-normal{stroke-width:1px;}#my-svg .edge-thickness-thick{stroke-width:3.5px;}#my-svg .edge-pattern-solid{stroke-dasharray:0;}#my-svg .edge-thickness-invisible{stroke-width:0;fill:none;}#my-svg .edge-pattern-dashed{stroke-dasharray:3;}#my-svg .edge-pattern-dotted{stroke-dasharray:2;}#my-svg .marker{fill:#333333;stroke:#333333;}#my-svg .marker.cross{stroke:#333333;}#my-svg svg{font-family:"trebuchet ms",verdana,arial,sans-serif;font-size:16px;}#my-svg p{margin:0;}#my-svg .entityBox{fill:#ECECFF;stroke:#9370DB;}#my-svg .relationshipLabelBox{fill:hsl(80, 100%, 96.2745098039%);opacity:0.7;background-color:hsl(80, 100%, 96.2745098039%);}#my-svg .relationshipLabelBox rect{opacity:0.5;}#my-svg .labelBkg{background-color:rgba(248.6666666666, 255, 235.9999999999, 0.5);}#my-svg .edgeLabel{background-color:rgba(232,232,232, 0.8);}#my-svg .edgeLabel .label rect{fill:rgba(232,232,232, 0.8);}#my-svg .edgeLabel .label text{fill:#333;}#my-svg .edgeLabel .label{fill:#9370DB;font-size:14px;}#my-svg .label{font-family:"trebuchet ms",verdana,arial,sans-serif;color:#333;}#my-svg .edge-pattern-dashed{stroke-dasharray:8,8;}#my-svg .node rect,#my-svg .node circle,#my-svg .node ellipse,#my-svg .node polygon{fill:#ECECFF;stroke:#9370DB;stroke-width:1px;}#my-svg .relationshipLine{stroke:#333333;stroke-width:1px;fill:none;}#my-svg .marker{fill:none!important;stroke:#333333!important;stroke-width:1;}#my-svg [data-look=neo].labelBkg{background-color:rgba(248.6666666666, 255, 235.9999999999, 0.5);}#my-svg .node .neo-node{stroke:#9370DB;}#my-svg [data-look="neo"].node rect,#my-svg [data-look="neo"].cluster rect,#my-svg [data-look="neo"].node polygon{stroke:#9370DB;filter:drop-shadow(1px 2px 2px rgba(185, 185, 185, 1));}#my-svg [data-look="neo"].swimlane.cluster rect{filter:none;}#my-svg [data-look="neo"].node path{stroke:#9370DB;stroke-width:1px;}#my-svg [data-look="neo"].node .outer-path{filter:drop-shadow(1px 2px 2px rgba(185, 185, 185, 1));}#my-svg [data-look="neo"].node .neo-line path{stroke:#9370DB;filter:none;}#my-svg [data-look="neo"].node circle{stroke:#9370DB;filter:drop-shadow(1px 2px 2px rgba(185, 185, 185, 1));}#my-svg [data-look="neo"].node circle .state-start{fill:#000000;}#my-svg [data-look="neo"].icon-shape .icon{fill:#9370DB;filter:drop-shadow(1px 2px 2px rgba(185, 185, 185, 1));}#my-svg [data-look="neo"].icon-shape .icon-neo path{stroke:#9370DB;filter:drop-shadow(1px 2px 2px rgba(185, 185, 185, 1));}#my-svg :root{--mermaid-font-family:"trebuchet ms",verdana,arial,sans-serif;}</style><g><defs><marker id="my-svg_er-onlyOneStart" class="marker onlyOne er" refX="0" refY="9" markerWidth="18" markerHeight="18" orient="auto"><path d="M9,0 L9,18 M15,0 L15,18"/></marker></defs><defs><marker id="my-svg_er-onlyOneEnd" class="marker onlyOne er" refX="18" refY="9" markerWidth="18" markerHeight="18" orient="auto"><path d="M3,0 L3,18 M9,0 L9,18"/></marker></defs><defs><marker id="my-svg_er-zeroOrOneStart" class="marker zeroOrOne er" refX="0" refY="9" markerWidth="30" markerHeight="18" orient="auto"><circle fill="white" cx="21" cy="9" r="6"/><path d="M9,0 L9,18"/></marker></defs><defs><marker id="my-svg_er-zeroOrOneEnd" class="marker zeroOrOne er" refX="30" refY="9" markerWidth="30" markerHeight="18" orient="auto"><circle fill="white" cx="9" cy="9" r="6"/><path d="M21,0 L21,18"/></marker></defs><defs><marker id="my-svg_er-oneOrMoreStart" class="marker oneOrMore er" refX="18" refY="18" markerWidth="45" markerHeight="36" orient="auto"><path d="M0,18 Q 18,0 36,18 Q 18,36 0,18 M42,9 L42,27"/></marker></defs><defs><marker id="my-svg_er-oneOrMoreEnd" class="marker oneOrMore er" refX="27" refY="18" markerWidth="45" markerHeight="36" orient="auto"><path d="M3,9 L3,27 M9,18 Q27,0 45,18 Q27,36 9,18"/></marker></defs><defs><marker id="my-svg_er-zeroOrMoreStart" class="marker zeroOrMore er" refX="18" refY="18" markerWidth="57" markerHeight="36" orient="auto"><circle fill="white" cx="48" cy="18" r="6"/><path d="M0,18 Q18,0 36,18 Q18,36 0,18"/></marker></defs><defs><marker id="my-svg_er-zeroOrMoreEnd" class="marker zeroOrMore er" refX="39" refY="18" markerWidth="57" markerHeight="36" orient="auto"><circle fill="white" cx="9" cy="18" r="6"/><path d="M21,18 Q39,0 57,18 Q39,36 21,18"/></marker></defs><g class="root"><g class="clusters"/><g class="edgePaths"><path d="M170.068,93.5L178.316,101.917C186.564,110.333,203.059,127.167,211.307,144C219.555,160.833,219.555,177.667,219.555,186.083L219.555,194.5" id="my-svg-id_entity-Breed-4_entity-Culture-3_0" class="edge-thickness-normal edge-pattern-solid relationshipLine" style="undefined;;;undefined" data-edge="true" data-et="edge" data-id="id_entity-Breed-4_entity-Culture-3_0" data-points="W3sieCI6MTcwLjA2Nzk4NzYwMDUzNjE4LCJ5Ijo5My41fSx7IngiOjIxOS41NTQ2ODc1LCJ5IjoxNDR9LHsieCI6MjE5LjU1NDY4NzUsInkiOjE5NC41fV0=" data-look="classic" marker-start="url(#my-svg_er-onlyOneStart)" marker-end="url(#my-svg_er-zeroOrOneEnd)"/><path d="M86.284,93.5L78.036,101.917C69.788,110.333,53.292,127.167,45.045,151.125C36.797,175.083,36.797,206.167,36.797,237.25C36.797,268.333,36.797,299.417,53.292,323.375C69.788,347.333,102.779,364.167,119.275,372.583L135.77,381" id="my-svg-id_entity-Breed-4_entity-SettlementWorld-2_1" class="edge-thickness-normal edge-pattern-solid relationshipLine" style="undefined;;;undefined" data-edge="true" data-et="edge" data-id="id_entity-Breed-4_entity-SettlementWorld-2_1" data-points="W3sieCI6ODYuMjgzNTc0ODk5NDYzODIsInkiOjkzLjV9LHsieCI6MzYuNzk2ODc1LCJ5IjoxNDR9LHsieCI6MzYuNzk2ODc1LCJ5IjoyMzcuMjV9LHsieCI6MzYuNzk2ODc1LCJ5IjozMzAuNX0seyJ4IjoxMzUuNzcwMjc0Nzk4OTI3NjMsInkiOjM4MX1d" data-look="classic" marker-start="url(#my-svg_er-onlyOneStart)" marker-end="url(#my-svg_er-zeroOrMoreEnd)"/><path d="M219.555,280L219.555,288.417C219.555,296.833,219.555,313.667,219.555,330.5C219.555,347.333,219.555,364.167,219.555,372.583L219.555,381" id="my-svg-id_entity-Culture-3_entity-SettlementWorld-2_2" class="edge-thickness-normal edge-pattern-solid relationshipLine" style="undefined;;;undefined" data-edge="true" data-et="edge" data-id="id_entity-Culture-3_entity-SettlementWorld-2_2" data-points="W3sieCI6MjE5LjU1NDY4NzUsInkiOjI4MH0seyJ4IjoyMTkuNTU0Njg3NSwieSI6MzMwLjV9LHsieCI6MjE5LjU1NDY4NzUsInkiOjM4MX1d" data-look="classic" marker-start="url(#my-svg_er-onlyOneStart)" marker-end="url(#my-svg_er-zeroOrMoreEnd)"/><path d="M507.477,93.5L507.477,101.917C507.477,110.333,507.477,127.167,507.477,144C507.477,160.833,507.477,177.667,507.477,186.083L507.477,194.5" id="my-svg-id_entity-Site-0_entity-Settlement-1_3" class="edge-thickness-normal edge-pattern-solid relationshipLine" style="undefined;;;undefined" data-edge="true" data-et="edge" data-id="id_entity-Site-0_entity-Settlement-1_3" data-points="W3sieCI6NTA3LjQ3NjU2MjUsInkiOjkzLjV9LHsieCI6NTA3LjQ3NjU2MjUsInkiOjE0NH0seyJ4Ijo1MDcuNDc2NTYyNSwieSI6MTk0LjV9XQ==" data-look="classic" marker-start="url(#my-svg_er-onlyOneStart)" marker-end="url(#my-svg_er-zeroOrOneEnd)"/><path d="M507.477,280L507.477,288.417C507.477,296.833,507.477,313.667,473.488,333.091C439.5,352.516,371.523,374.531,337.535,385.539L303.547,396.547" id="my-svg-id_entity-Settlement-1_entity-SettlementWorld-2_4" class="edge-thickness-normal edge-pattern-solid relationshipLine" style="undefined;;;undefined" data-edge="true" data-et="edge" data-id="id_entity-Settlement-1_entity-SettlementWorld-2_4" data-points="W3sieCI6NTA3LjQ3NjU2MjUsInkiOjI4MH0seyJ4Ijo1MDcuNDc2NTYyNSwieSI6MzMwLjV9LHsieCI6MzAzLjU0Njg3NSwieSI6Mzk2LjU0NzIzMzY3ODg0MDh9XQ==" data-look="classic" marker-start="url(#my-svg_er-onlyOneStart)" marker-end="url(#my-svg_er-zeroOrMoreEnd)"/></g><g class="edgeLabels"><g class="edgeLabel" transform="translate(219.5546875, 144)"><g class="label" data-id="id_entity-Breed-4_entity-Culture-3_0" transform="translate(-28.796875, -10.5)"><foreignObject width="57.59375" height="21"><div xmlns="http://www.w3.org/1999/xhtml" class="labelBkg" style="display: table-cell; white-space: nowrap; line-height: 1.5; max-width: 200px; text-align: center;"><span class="edgeLabel"><p>relates to</p></span></div></foreignObject></g></g><g class="edgeLabel" transform="translate(36.796875, 237.25)"><g class="label" data-id="id_entity-Breed-4_entity-SettlementWorld-2_1" transform="translate(-28.796875, -10.5)"><foreignObject width="57.59375" height="21"><div xmlns="http://www.w3.org/1999/xhtml" class="labelBkg" style="display: table-cell; white-space: nowrap; line-height: 1.5; max-width: 200px; text-align: center;"><span class="edgeLabel"><p>relates to</p></span></div></foreignObject></g></g><g class="edgeLabel" transform="translate(219.5546875, 330.5)"><g class="label" data-id="id_entity-Culture-3_entity-SettlementWorld-2_2" transform="translate(-28.796875, -10.5)"><foreignObject width="57.59375" height="21"><div xmlns="http://www.w3.org/1999/xhtml" class="labelBkg" style="display: table-cell; white-space: nowrap; line-height: 1.5; max-width: 200px; text-align: center;"><span class="edgeLabel"><p>relates to</p></span></div></foreignObject></g></g><g class="edgeLabel" transform="translate(507.4765625, 144)"><g class="label" data-id="id_entity-Site-0_entity-Settlement-1_3" transform="translate(-28.796875, -10.5)"><foreignObject width="57.59375" height="21"><div xmlns="http://www.w3.org/1999/xhtml" class="labelBkg" style="display: table-cell; white-space: nowrap; line-height: 1.5; max-width: 200px; text-align: center;"><span class="edgeLabel"><p>relates to</p></span></div></foreignObject></g></g><g class="edgeLabel" transform="translate(507.4765625, 330.5)"><g class="label" data-id="id_entity-Settlement-1_entity-SettlementWorld-2_4" transform="translate(-28.796875, -10.5)"><foreignObject width="57.59375" height="21"><div xmlns="http://www.w3.org/1999/xhtml" class="labelBkg" style="display: table-cell; white-space: nowrap; line-height: 1.5; max-width: 200px; text-align: center;"><span class="edgeLabel"><p>relates to</p></span></div></foreignObject></g></g></g><g class="nodes"><g class="node default" id="my-svg-entity-Site-0" data-look="classic" transform="translate(507.4765625, 50.75)"><g class="outer-path" style=""><path d="M-73.9609375 -42.75 L73.9609375 -42.75 L73.9609375 42.75 L-73.9609375 42.75" stroke="none" stroke-width="0" fill="#ECECFF"/><path d="M-73.9609375 -42.75 C-21.06816032981203 -42.75, 31.82461684037594 -42.75, 73.9609375 -42.75 M-73.9609375 -42.75 C-31.732052357564363 -42.75, 10.496832784871273 -42.75, 73.9609375 -42.75 M73.9609375 -42.75 C73.9609375 -25.307365787364994, 73.9609375 -7.864731574729987, 73.9609375 42.75 M73.9609375 -42.75 C73.9609375 -19.134803387928077, 73.9609375 4.480393224143846, 73.9609375 42.75 M73.9609375 42.75 C30.36242576221234 42.75, -13.236085975575321 42.75, -73.9609375 42.75 M73.9609375 42.75 C17.672289855393025 42.75, -38.61635778921395 42.75, -73.9609375 42.75 M-73.9609375 42.75 C-73.9609375 18.473139956743243, -73.9609375 -5.803720086513515, -73.9609375 -42.75 M-73.9609375 42.75 C-73.9609375 12.794998985808586, -73.9609375 -17.160002028382827, -73.9609375 -42.75" stroke="#9370DB" stroke-width="1.3" fill="none" stroke-dasharray="0 0"/></g><g style="" class="row-rect-odd"><path d="M-73.9609375 0 L73.9609375 0 L73.9609375 42.75 L-73.9609375 42.75" stroke="none" stroke-width="0" fill="hsl(240, 100%, 100%)"/><path d="M-73.9609375 0 C-27.15266019129878 0, 19.655617117402443 0, 73.9609375 0 M-73.9609375 0 C-23.17866415568261 0, 27.603609188634778 0, 73.9609375 0 M73.9609375 0 C73.9609375 15.567964286924699, 73.9609375 31.135928573849398, 73.9609375 42.75 M73.9609375 0 C73.9609375 12.421917904579221, 73.9609375 24.843835809158442, 73.9609375 42.75 M73.9609375 42.75 C21.619207883594882 42.75, -30.722521732810236 42.75, -73.9609375 42.75 M73.9609375 42.75 C26.532404634606273 42.75, -20.896128230787454 42.75, -73.9609375 42.75 M-73.9609375 42.75 C-73.9609375 27.010779845459364, -73.9609375 11.271559690918728, -73.9609375 0 M-73.9609375 42.75 C-73.9609375 31.08200581191409, -73.9609375 19.41401162382818, -73.9609375 0" stroke="#9370DB" stroke-width="1.3" fill="none" stroke-dasharray="0 0"/></g><g class="label name" transform="translate(-13.7890625, -33.375)" style=""><foreignObject width="27.578125" height="24"><div xmlns="http://www.w3.org/1999/xhtml" style="display: table-cell; white-space: nowrap; line-height: 1.5; max-width: 125px; text-align: start;"><span class="nodeLabel"><p>Site</p></span></div></foreignObject></g><g class="label attribute-type" transform="translate(-61.4609375, 9.375)" style=""><foreignObject width="39.125" height="24"><div xmlns="http://www.w3.org/1999/xhtml" style="display: table-cell; white-space: nowrap; line-height: 1.5; max-width: 136px; text-align: start;"><span class="nodeLabel"><p>string</p></span></div></foreignObject></g><g class="label attribute-name" transform="translate(2.6640625, 9.375)" style=""><foreignObject width="12.453125" height="24"><div xmlns="http://www.w3.org/1999/xhtml" style="display: table-cell; white-space: nowrap; line-height: 1.5; max-width: 112px; text-align: start;"><span class="nodeLabel"><p>id</p></span></div></foreignObject></g><g class="label attribute-keys" transform="translate(40.1171875, 9.375)" style=""><foreignObject width="21.34375" height="24"><div xmlns="http://www.w3.org/1999/xhtml" style="display: table-cell; white-space: nowrap; line-height: 1.5; max-width: 121px; text-align: start;"><span class="nodeLabel"><p>PK</p></span></div></foreignObject></g><g class="label attribute-comment" transform="translate(86.4609375, 9.375)" style=""><foreignObject width="0" height="0"><div xmlns="http://www.w3.org/1999/xhtml" style="display: table-cell; white-space: nowrap; line-height: 1.5; max-width: 100px; text-align: start;"><span class="nodeLabel"></span></div></foreignObject></g><g class="divider"><path d="M-73.9609375 -0.00005 L-73.9609375 0.00005 L73.9609375 0.00005 L73.9609375 -0.00005" stroke="none" stroke-width="0" fill="#ECECFF" fill-rule="evenodd"/><path d="M-73.9609375 -0.00005 C-73.9609375 -0.000014225730957321459, -73.9609375 0.000021548538085357085, -73.9609375 0.00005 M-73.9609375 -0.00005 C-73.9609375 -0.00002972268613524586, -73.9609375 -0.000009445372270491718, -73.9609375 0.00005 M-73.9609375 0.00005 C-40.49503665760568 0.00005, -7.029135815211362 0.00005, 73.9609375 0.00005 M-73.9609375 0.00005 C-15.705213791339133 0.00005, 42.55050991732173 0.00005, 73.9609375 0.00005 M73.9609375 0.00005 C73.9609375 0.000010709935577451152, 73.9609375 -0.000028580128845097698, 73.9609375 -0.00005 M73.9609375 0.00005 C73.9609375 0.000016789895430733682, 73.9609375 -0.00001642020913853264, 73.9609375 -0.00005 M73.9609375 -0.00005 C20.552552339392747 -0.00005, -32.855832821214506 -0.00005, -73.9609375 -0.00005 M73.9609375 -0.00005 C23.43497914508439 -0.00005, -27.090979209831218 -0.00005, -73.9609375 -0.00005" stroke="#9370DB" stroke-width="1.3" fill="none" stroke-dasharray="0 0"/></g><g class="divider"><path d="M-9.8359875 0 L-9.8358875 0 L-9.8358875 42.75 L-9.8359875 42.75" stroke="none" stroke-width="0" fill="#ECECFF" fill-rule="evenodd"/><path d="M-9.8359875 0 C-9.83596622498564 0, -9.835944949971282 0, -9.8358875 0 M-9.8359875 0 C-9.83595613980522 0, -9.83592477961044 0, -9.8358875 0 M-9.8358875 0 C-9.8358875 15.587230719657734, -9.8358875 31.17446143931547, -9.8358875 42.75 M-9.8358875 0 C-9.8358875 12.786468070026219, -9.8358875 25.572936140052438, -9.8358875 42.75 M-9.8358875 42.75 C-9.83592522603131 42.75, -9.83596295206262 42.75, -9.8359875 42.75 M-9.8358875 42.75 C-9.835909375690894 42.75, -9.835931251381789 42.75, -9.8359875 42.75 M-9.8359875 42.75 C-9.8359875 31.245022285720957, -9.8359875 19.740044571441913, -9.8359875 0 M-9.8359875 42.75 C-9.8359875 34.130652524815474, -9.8359875 25.511305049630955, -9.8359875 0" stroke="#9370DB" stroke-width="1.3" fill="none" stroke-dasharray="0 0"/></g><g class="divider"><path d="M27.6171375 0 L27.6172375 0 L27.6172375 42.75 L27.6171375 42.75" stroke="none" stroke-width="0" fill="#ECECFF" fill-rule="evenodd"/><path d="M27.6171375 0 C27.617161776213308 0, 27.617186052426618 0, 27.6172375 0 M27.6171375 0 C27.61716563678548 0, 27.61719377357096 0, 27.6172375 0 M27.6172375 0 C27.6172375 15.831172000672877, 27.6172375 31.662344001345755, 27.6172375 42.75 M27.6172375 0 C27.6172375 16.63501114601798, 27.6172375 33.27002229203596, 27.6172375 42.75 M27.6172375 42.75 C27.617212514961288 42.75, 27.617187529922575 42.75, 27.6171375 42.75 M27.6172375 42.75 C27.61720112517971 42.75, 27.617164750359418 42.75, 27.6171375 42.75 M27.6171375 42.75 C27.6171375 27.96963530394939, 27.6171375 13.18927060789878, 27.6171375 0 M27.6171375 42.75 C27.6171375 32.14522430786293, 27.6171375 21.540448615725865, 27.6171375 0" stroke="#9370DB" stroke-width="1.3" fill="none" stroke-dasharray="0 0"/></g><g class="divider"><path d="M-73.9609375 -0.00005 L-73.9609375 0.00005 L73.9609375 0.00005 L73.9609375 -0.00005" stroke="none" stroke-width="0" fill="#ECECFF" fill-rule="evenodd"/><path d="M-73.9609375 -0.00005 C-73.9609375 -0.000024429366055950765, -73.9609375 0.0000011412678880984718, -73.9609375 0.00005 M-73.9609375 -0.00005 C-73.9609375 -0.000017639156740607864, -73.9609375 0.000014721686518784275, -73.9609375 0.00005 M-73.9609375 0.00005 C-25.13614246611064 0.00005, 23.688652567778718 0.00005, 73.9609375 0.00005 M-73.9609375 0.00005 C-27.608898350680107 0.00005, 18.743140798639786 0.00005, 73.9609375 0.00005 M73.9609375 0.00005 C73.9609375 0.00002635170934902267, 73.9609375 0.000002703418698045335, 73.9609375 -0.00005 M73.9609375 0.00005 C73.9609375 0.000026773904952067962, 73.9609375 0.000003547809904135922, 73.9609375 -0.00005 M73.9609375 -0.00005 C35.08808625302636 -0.00005, -3.7847649939472774 -0.00005, -73.9609375 -0.00005 M73.9609375 -0.00005 C31.929009040914472 -0.00005, -10.102919418171055 -0.00005, -73.9609375 -0.00005" stroke="#9370DB" stroke-width="1.3" fill="none" stroke-dasharray="0 0"/></g></g><g class="node default" id="my-svg-entity-Settlement-1" data-look="classic" transform="translate(507.4765625, 237.25)"><g class="outer-path" style=""><path d="M-73.9609375 -42.75 L73.9609375 -42.75 L73.9609375 42.75 L-73.9609375 42.75" stroke="none" stroke-width="0" fill="#ECECFF"/><path d="M-73.9609375 -42.75 C-30.624303522637668 -42.75, 12.712330454724665 -42.75, 73.9609375 -42.75 M-73.9609375 -42.75 C-38.693860253135746 -42.75, -3.426783006271492 -42.75, 73.9609375 -42.75 M73.9609375 -42.75 C73.9609375 -13.149089103303044, 73.9609375 16.45182179339391, 73.9609375 42.75 M73.9609375 -42.75 C73.9609375 -16.561500103699842, 73.9609375 9.626999792600316, 73.9609375 42.75 M73.9609375 42.75 C41.98741854830673 42.75, 10.013899596613456 42.75, -73.9609375 42.75 M73.9609375 42.75 C25.207509148624446 42.75, -23.545919202751108 42.75, -73.9609375 42.75 M-73.9609375 42.75 C-73.9609375 9.850863156019756, -73.9609375 -23.04827368796049, -73.9609375 -42.75 M-73.9609375 42.75 C-73.9609375 22.974891144705147, -73.9609375 3.199782289410294, -73.9609375 -42.75" stroke="#9370DB" stroke-width="1.3" fill="none" stroke-dasharray="0 0"/></g><g style="" class="row-rect-odd"><path d="M-73.9609375 0 L73.9609375 0 L73.9609375 42.75 L-73.9609375 42.75" stroke="none" stroke-width="0" fill="hsl(240, 100%, 100%)"/><path d="M-73.9609375 0 C-38.88276110904641 0, -3.8045847180928263 0, 73.9609375 0 M-73.9609375 0 C-23.99938069304934 0, 25.96217611390132 0, 73.9609375 0 M73.9609375 0 C73.9609375 10.40167056761465, 73.9609375 20.8033411352293, 73.9609375 42.75 M73.9609375 0 C73.9609375 9.7128573469894, 73.9609375 19.4257146939788, 73.9609375 42.75 M73.9609375 42.75 C34.936455916392894 42.75, -4.088025667214211 42.75, -73.9609375 42.75 M73.9609375 42.75 C25.23855105252241 42.75, -23.48383539495518 42.75, -73.9609375 42.75 M-73.9609375 42.75 C-73.9609375 25.922017815539565, -73.9609375 9.09403563107913, -73.9609375 0 M-73.9609375 42.75 C-73.9609375 26.159687138814107, -73.9609375 9.569374277628214, -73.9609375 0" stroke="#9370DB" stroke-width="1.3" fill="none" stroke-dasharray="0 0"/></g><g class="label name" transform="translate(-38.2421875, -33.375)" style=""><foreignObject width="76.484375" height="24"><div xmlns="http://www.w3.org/1999/xhtml" style="display: table-cell; white-space: nowrap; line-height: 1.5; max-width: 169px; text-align: start;"><span class="nodeLabel"><p>Settlement</p></span></div></foreignObject></g><g class="label attribute-type" transform="translate(-61.4609375, 9.375)" style=""><foreignObject width="39.125" height="24"><div xmlns="http://www.w3.org/1999/xhtml" style="display: table-cell; white-space: nowrap; line-height: 1.5; max-width: 136px; text-align: start;"><span class="nodeLabel"><p>string</p></span></div></foreignObject></g><g class="label attribute-name" transform="translate(2.6640625, 9.375)" style=""><foreignObject width="12.453125" height="24"><div xmlns="http://www.w3.org/1999/xhtml" style="display: table-cell; white-space: nowrap; line-height: 1.5; max-width: 112px; text-align: start;"><span class="nodeLabel"><p>id</p></span></div></foreignObject></g><g class="label attribute-keys" transform="translate(40.1171875, 9.375)" style=""><foreignObject width="21.34375" height="24"><div xmlns="http://www.w3.org/1999/xhtml" style="display: table-cell; white-space: nowrap; line-height: 1.5; max-width: 121px; text-align: start;"><span class="nodeLabel"><p>PK</p></span></div></foreignObject></g><g class="label attribute-comment" transform="translate(86.4609375, 9.375)" style=""><foreignObject width="0" height="0"><div xmlns="http://www.w3.org/1999/xhtml" style="display: table-cell; white-space: nowrap; line-height: 1.5; max-width: 100px; text-align: start;"><span class="nodeLabel"></span></div></foreignObject></g><g class="divider"><path d="M-73.9609375 -0.00005 L-73.9609375 0.00005 L73.9609375 0.00005 L73.9609375 -0.00005" stroke="none" stroke-width="0" fill="#ECECFF" fill-rule="evenodd"/><path d="M-73.9609375 -0.00005 C-73.9609375 -0.00001642379057489355, -73.9609375 0.000017152418850212903, -73.9609375 0.00005 M-73.9609375 -0.00005 C-73.9609375 -0.000011584918044001573, -73.9609375 0.000026830163911996856, -73.9609375 0.00005 M-73.9609375 0.00005 C-21.811057126643654 0.00005, 30.338823246712693 0.00005, 73.9609375 0.00005 M-73.9609375 0.00005 C-17.663053669760735 0.00005, 38.63483016047853 0.00005, 73.9609375 0.00005 M73.9609375 0.00005 C73.9609375 0.00001295618593331989, 73.9609375 -0.00002408762813336022, 73.9609375 -0.00005 M73.9609375 0.00005 C73.9609375 0.000021326713155436816, 73.9609375 -0.0000073465736891263695, 73.9609375 -0.00005 M73.9609375 -0.00005 C27.78045609748858 -0.00005, -18.400025305022837 -0.00005, -73.9609375 -0.00005 M73.9609375 -0.00005 C42.62125357282404 -0.00005, 11.281569645648077 -0.00005, -73.9609375 -0.00005" stroke="#9370DB" stroke-width="1.3" fill="none" stroke-dasharray="0 0"/></g><g class="divider"><path d="M-9.8359875 0 L-9.8358875 0 L-9.8358875 42.75 L-9.8359875 42.75" stroke="none" stroke-width="0" fill="#ECECFF" fill-rule="evenodd"/><path d="M-9.8359875 0 C-9.835965482729026 0, -9.835943465458055 0, -9.8358875 0 M-9.8359875 0 C-9.835960818542032 0, -9.835934137084063 0, -9.8358875 0 M-9.8358875 0 C-9.8358875 16.985746338335026, -9.8358875 33.97149267667005, -9.8358875 42.75 M-9.8358875 0 C-9.8358875 12.47245338259354, -9.8358875 24.94490676518708, -9.8358875 42.75 M-9.8358875 42.75 C-9.835914071106957 42.75, -9.835940642213917 42.75, -9.8359875 42.75 M-9.8358875 42.75 C-9.835923433939854 42.75, -9.835959367879708 42.75, -9.8359875 42.75 M-9.8359875 42.75 C-9.8359875 30.649456287214214, -9.8359875 18.548912574428428, -9.8359875 0 M-9.8359875 42.75 C-9.8359875 29.30526462983748, -9.8359875 15.860529259674959, -9.8359875 0" stroke="#9370DB" stroke-width="1.3" fill="none" stroke-dasharray="0 0"/></g><g class="divider"><path d="M27.6171375 0 L27.6172375 0 L27.6172375 42.75 L27.6171375 42.75" stroke="none" stroke-width="0" fill="#ECECFF" fill-rule="evenodd"/><path d="M27.6171375 0 C27.617165908949357 0, 27.61719431789872 0, 27.6172375 0 M27.6171375 0 C27.617162220180088 0, 27.617186940360178 0, 27.6172375 0 M27.6172375 0 C27.6172375 10.15340979857633, 27.6172375 20.30681959715266, 27.6172375 42.75 M27.6172375 0 C27.6172375 12.580278304707537, 27.6172375 25.160556609415075, 27.6172375 42.75 M27.6172375 42.75 C27.61720371239079 42.75, 27.617169924781578 42.75, 27.6171375 42.75 M27.6172375 42.75 C27.617209989274784 42.75, 27.617182478549562 42.75, 27.6171375 42.75 M27.6171375 42.75 C27.6171375 29.64601789528232, 27.6171375 16.542035790564643, 27.6171375 0 M27.6171375 42.75 C27.6171375 26.00202573013223, 27.6171375 9.254051460264463, 27.6171375 0" stroke="#9370DB" stroke-width="1.3" fill="none" stroke-dasharray="0 0"/></g><g class="divider"><path d="M-73.9609375 -0.00005 L-73.9609375 0.00005 L73.9609375 0.00005 L73.9609375 -0.00005" stroke="none" stroke-width="0" fill="#ECECFF" fill-rule="evenodd"/><path d="M-73.9609375 -0.00005 C-73.9609375 -0.000018644187606762468, -73.9609375 0.000012711624786475066, -73.9609375 0.00005 M-73.9609375 -0.00005 C-73.9609375 -0.000023609689982790257, -73.9609375 0.0000027806200344194886, -73.9609375 0.00005 M-73.9609375 0.00005 C-18.298335851977946 0.00005, 37.36426579604411 0.00005, 73.9609375 0.00005 M-73.9609375 0.00005 C-32.15331433631849 0.00005, 9.654308827363025 0.00005, 73.9609375 0.00005 M73.9609375 0.00005 C73.9609375 0.000011741541543805108, 73.9609375 -0.000026516916912389786, 73.9609375 -0.00005 M73.9609375 0.00005 C73.9609375 0.000028250787301073956, 73.9609375 0.00000650157460214791, 73.9609375 -0.00005 M73.9609375 -0.00005 C39.42703197769509 -0.00005, 4.893126455390174 -0.00005, -73.9609375 -0.00005 M73.9609375 -0.00005 C22.06923614175284 -0.00005, -29.822465216494322 -0.00005, -73.9609375 -0.00005" stroke="#9370DB" stroke-width="1.3" fill="none" stroke-dasharray="0 0"/></g></g><g class="node default" id="my-svg-entity-SettlementWorld-2" data-look="classic" transform="translate(219.5546875, 423.75)"><g class="outer-path" style=""><path d="M-83.9921875 -42.75 L83.9921875 -42.75 L83.9921875 42.75 L-83.9921875 42.75" stroke="none" stroke-width="0" fill="#ECECFF"/><path d="M-83.9921875 -42.75 C-31.010076726562012 -42.75, 21.972034046875976 -42.75, 83.9921875 -42.75 M-83.9921875 -42.75 C-34.35307678935703 -42.75, 15.286033921285934 -42.75, 83.9921875 -42.75 M83.9921875 -42.75 C83.9921875 -24.30901818164834, 83.9921875 -5.868036363296682, 83.9921875 42.75 M83.9921875 -42.75 C83.9921875 -24.201642684265902, 83.9921875 -5.6532853685318045, 83.9921875 42.75 M83.9921875 42.75 C35.998445006905996 42.75, -11.995297486188008 42.75, -83.9921875 42.75 M83.9921875 42.75 C36.22817447336507 42.75, -11.535838553269855 42.75, -83.9921875 42.75 M-83.9921875 42.75 C-83.9921875 11.389743094699131, -83.9921875 -19.970513810601737, -83.9921875 -42.75 M-83.9921875 42.75 C-83.9921875 10.266344374502758, -83.9921875 -22.217311250994484, -83.9921875 -42.75" stroke="#9370DB" stroke-width="1.3" fill="none" stroke-dasharray="0 0"/></g><g style="" class="row-rect-odd"><path d="M-83.9921875 0 L83.9921875 0 L83.9921875 42.75 L-83.9921875 42.75" stroke="none" stroke-width="0" fill="hsl(240, 100%, 100%)"/><path d="M-83.9921875 0 C-32.42023006493945 0, 19.151727370121094 0, 83.9921875 0 M-83.9921875 0 C-20.169590185821406 0, 43.65300712835719 0, 83.9921875 0 M83.9921875 0 C83.9921875 13.466145010685064, 83.9921875 26.93229002137013, 83.9921875 42.75 M83.9921875 0 C83.9921875 9.74540321311685, 83.9921875 19.4908064262337, 83.9921875 42.75 M83.9921875 42.75 C48.35695688752919 42.75, 12.721726275058387 42.75, -83.9921875 42.75 M83.9921875 42.75 C42.20384473873656 42.75, 0.415501977473113 42.75, -83.9921875 42.75 M-83.9921875 42.75 C-83.9921875 30.937280442698928, -83.9921875 19.12456088539786, -83.9921875 0 M-83.9921875 42.75 C-83.9921875 30.76393261419694, -83.9921875 18.777865228393875, -83.9921875 0" stroke="#9370DB" stroke-width="1.3" fill="none" stroke-dasharray="0 0"/></g><g class="label name" transform="translate(-58.9921875, -33.375)" style=""><foreignObject width="117.984375" height="24"><div xmlns="http://www.w3.org/1999/xhtml" style="display: table-cell; white-space: nowrap; line-height: 1.5; max-width: 208px; text-align: start;"><span class="nodeLabel"><p>SettlementWorld</p></span></div></foreignObject></g><g class="label attribute-type" transform="translate(-71.4921875, 9.375)" style=""><foreignObject width="39.125" height="24"><div xmlns="http://www.w3.org/1999/xhtml" style="display: table-cell; white-space: nowrap; line-height: 1.5; max-width: 136px; text-align: start;"><span class="nodeLabel"><p>string</p></span></div></foreignObject></g><g class="label attribute-name" transform="translate(-0.6796875, 9.375)" style=""><foreignObject width="12.453125" height="24"><div xmlns="http://www.w3.org/1999/xhtml" style="display: table-cell; white-space: nowrap; line-height: 1.5; max-width: 112px; text-align: start;"><span class="nodeLabel"><p>id</p></span></div></foreignObject></g><g class="label attribute-keys" transform="translate(43.4609375, 9.375)" style=""><foreignObject width="21.34375" height="24"><div xmlns="http://www.w3.org/1999/xhtml" style="display: table-cell; white-space: nowrap; line-height: 1.5; max-width: 121px; text-align: start;"><span class="nodeLabel"><p>PK</p></span></div></foreignObject></g><g class="label attribute-comment" transform="translate(96.4921875, 9.375)" style=""><foreignObject width="0" height="0"><div xmlns="http://www.w3.org/1999/xhtml" style="display: table-cell; white-space: nowrap; line-height: 1.5; max-width: 100px; text-align: start;"><span class="nodeLabel"></span></div></foreignObject></g><g class="divider"><path d="M-83.9921875 -0.00005 L-83.9921875 0.00005 L83.9921875 0.00005 L83.9921875 -0.00005" stroke="none" stroke-width="0" fill="#ECECFF" fill-rule="evenodd"/><path d="M-83.9921875 -0.00005 C-83.9921875 -0.000011206951475115643, -83.9921875 0.000027586097049768717, -83.9921875 0.00005 M-83.9921875 -0.00005 C-83.9921875 -0.000021152349006393667, -83.9921875 0.000007695301987212668, -83.9921875 0.00005 M-83.9921875 0.00005 C-43.551725403646444 0.00005, -3.1112633072928872 0.00005, 83.9921875 0.00005 M-83.9921875 0.00005 C-44.45368162192258 0.00005, -4.915175743845154 0.00005, 83.9921875 0.00005 M83.9921875 0.00005 C83.9921875 0.000012589416941904705, 83.9921875 -0.00002482116611619059, 83.9921875 -0.00005 M83.9921875 0.00005 C83.9921875 0.000015718782980193377, 83.9921875 -0.000018562434039613247, 83.9921875 -0.00005 M83.9921875 -0.00005 C17.88571862844958 -0.00005, -48.22075024310084 -0.00005, -83.9921875 -0.00005 M83.9921875 -0.00005 C37.865473013518624 -0.00005, -8.261241472962752 -0.00005, -83.9921875 -0.00005" stroke="#9370DB" stroke-width="1.3" fill="none" stroke-dasharray="0 0"/></g><g class="divider"><path d="M-13.1797375 0 L-13.1796375 0 L-13.1796375 42.75 L-13.1797375 42.75" stroke="none" stroke-width="0" fill="#ECECFF" fill-rule="evenodd"/><path d="M-13.1797375 0 C-13.179708058973988 0, -13.179678617947976 0, -13.1796375 0 M-13.1797375 0 C-13.179714041700198 0, -13.179690583400394 0, -13.1796375 0 M-13.1796375 0 C-13.1796375 8.606185427533324, -13.1796375 17.21237085506665, -13.1796375 42.75 M-13.1796375 0 C-13.1796375 8.840954737312519, -13.1796375 17.681909474625037, -13.1796375 42.75 M-13.1796375 42.75 C-13.179669029430112 42.75, -13.179700558860224 42.75, -13.1797375 42.75 M-13.1796375 42.75 C-13.179668316725035 42.75, -13.17969913345007 42.75, -13.1797375 42.75 M-13.1797375 42.75 C-13.1797375 27.680854030903376, -13.1797375 12.611708061806752, -13.1797375 0 M-13.1797375 42.75 C-13.1797375 31.514206949820665, -13.1797375 20.27841389964133, -13.1797375 0" stroke="#9370DB" stroke-width="1.3" fill="none" stroke-dasharray="0 0"/></g><g class="divider"><path d="M30.9608875 0 L30.9609875 0 L30.9609875 42.75 L30.9608875 42.75" stroke="none" stroke-width="0" fill="#ECECFF" fill-rule="evenodd"/><path d="M30.9608875 0 C30.960921376706107 0, 30.960955253412216 0, 30.9609875 0 M30.9608875 0 C30.960916800652008 0, 30.960946101304014 0, 30.9609875 0 M30.9609875 0 C30.9609875 11.185916193553567, 30.9609875 22.371832387107133, 30.9609875 42.75 M30.9609875 0 C30.9609875 14.092494333600877, 30.9609875 28.184988667201754, 30.9609875 42.75 M30.9609875 42.75 C30.960957550198852 42.75, 30.9609276003977 42.75, 30.9608875 42.75 M30.9609875 42.75 C30.96096364292734 42.75, 30.960939785854677 42.75, 30.9608875 42.75 M30.9608875 42.75 C30.9608875 25.71721127322676, 30.9608875 8.684422546453519, 30.9608875 0 M30.9608875 42.75 C30.9608875 26.354987135933257, 30.9608875 9.959974271866514, 30.9608875 0" stroke="#9370DB" stroke-width="1.3" fill="none" stroke-dasharray="0 0"/></g><g class="divider"><path d="M-83.9921875 -0.00005 L-83.9921875 0.00005 L83.9921875 0.00005 L83.9921875 -0.00005" stroke="none" stroke-width="0" fill="#ECECFF" fill-rule="evenodd"/><path d="M-83.9921875 -0.00005 C-83.9921875 -0.00002942026764140371, -83.9921875 -0.000008840535282807415, -83.9921875 0.00005 M-83.9921875 -0.00005 C-83.9921875 -0.000023008979402050513, -83.9921875 0.000003982041195898977, -83.9921875 0.00005 M-83.9921875 0.00005 C-44.0411171574009 0.00005, -4.090046814801795 0.00005, 83.9921875 0.00005 M-83.9921875 0.00005 C-25.392441897581868 0.00005, 33.207303704836264 0.00005, 83.9921875 0.00005 M83.9921875 0.00005 C83.9921875 0.00002193528107336189, 83.9921875 -0.000006129437853276221, 83.9921875 -0.00005 M83.9921875 0.00005 C83.9921875 0.000014081147309764128, 83.9921875 -0.000021837705380471746, 83.9921875 -0.00005 M83.9921875 -0.00005 C45.34796808748403 -0.00005, 6.703748674968054 -0.00005, -83.9921875 -0.00005 M83.9921875 -0.00005 C29.58449986533875 -0.00005, -24.8231877693225 -0.00005, -83.9921875 -0.00005" stroke="#9370DB" stroke-width="1.3" fill="none" stroke-dasharray="0 0"/></g></g><g class="node default" id="my-svg-entity-Culture-3" data-look="classic" transform="translate(219.5546875, 237.25)"><g class="outer-path" style=""><path d="M-73.9609375 -42.75 L73.9609375 -42.75 L73.9609375 42.75 L-73.9609375 42.75" stroke="none" stroke-width="0" fill="#ECECFF"/><path d="M-73.9609375 -42.75 C-33.12581374082605 -42.75, 7.709310018347907 -42.75, 73.9609375 -42.75 M-73.9609375 -42.75 C-17.80373048195313 -42.75, 38.35347653609374 -42.75, 73.9609375 -42.75 M73.9609375 -42.75 C73.9609375 -8.840375852478324, 73.9609375 25.06924829504335, 73.9609375 42.75 M73.9609375 -42.75 C73.9609375 -23.536117109460324, 73.9609375 -4.322234218920649, 73.9609375 42.75 M73.9609375 42.75 C16.2261626323536 42.75, -41.5086122352928 42.75, -73.9609375 42.75 M73.9609375 42.75 C25.488628655810317 42.75, -22.983680188379367 42.75, -73.9609375 42.75 M-73.9609375 42.75 C-73.9609375 23.340090186954722, -73.9609375 3.930180373909444, -73.9609375 -42.75 M-73.9609375 42.75 C-73.9609375 8.84088557188241, -73.9609375 -25.06822885623518, -73.9609375 -42.75" stroke="#9370DB" stroke-width="1.3" fill="none" stroke-dasharray="0 0"/></g><g style="" class="row-rect-odd"><path d="M-73.9609375 0 L73.9609375 0 L73.9609375 42.75 L-73.9609375 42.75" stroke="none" stroke-width="0" fill="hsl(240, 100%, 100%)"/><path d="M-73.9609375 0 C-21.878651137470506 0, 30.20363522505899 0, 73.9609375 0 M-73.9609375 0 C-39.38858754841024 0, -4.816237596820486 0, 73.9609375 0 M73.9609375 0 C73.9609375 9.26064321866467, 73.9609375 18.52128643732934, 73.9609375 42.75 M73.9609375 0 C73.9609375 9.147220575744868, 73.9609375 18.294441151489735, 73.9609375 42.75 M73.9609375 42.75 C30.925519701874357 42.75, -12.109898096251285 42.75, -73.9609375 42.75 M73.9609375 42.75 C20.517422979489112 42.75, -32.926091541021776 42.75, -73.9609375 42.75 M-73.9609375 42.75 C-73.9609375 27.675225078427616, -73.9609375 12.600450156855228, -73.9609375 0 M-73.9609375 42.75 C-73.9609375 26.54323820261085, -73.9609375 10.336476405221703, -73.9609375 0" stroke="#9370DB" stroke-width="1.3" fill="none" stroke-dasharray="0 0"/></g><g class="label name" transform="translate(-25.7890625, -33.375)" style=""><foreignObject width="51.578125" height="24"><div xmlns="http://www.w3.org/1999/xhtml" style="display: table-cell; white-space: nowrap; line-height: 1.5; max-width: 148px; text-align: start;"><span class="nodeLabel"><p>Culture</p></span></div></foreignObject></g><g class="label attribute-type" transform="translate(-61.4609375, 9.375)" style=""><foreignObject width="39.125" height="24"><div xmlns="http://www.w3.org/1999/xhtml" style="display: table-cell; white-space: nowrap; line-height: 1.5; max-width: 136px; text-align: start;"><span class="nodeLabel"><p>string</p></span></div></foreignObject></g><g class="label attribute-name" transform="translate(2.6640625, 9.375)" style=""><foreignObject width="12.453125" height="24"><div xmlns="http://www.w3.org/1999/xhtml" style="display: table-cell; white-space: nowrap; line-height: 1.5; max-width: 112px; text-align: start;"><span class="nodeLabel"><p>id</p></span></div></foreignObject></g><g class="label attribute-keys" transform="translate(40.1171875, 9.375)" style=""><foreignObject width="21.34375" height="24"><div xmlns="http://www.w3.org/1999/xhtml" style="display: table-cell; white-space: nowrap; line-height: 1.5; max-width: 121px; text-align: start;"><span class="nodeLabel"><p>PK</p></span></div></foreignObject></g><g class="label attribute-comment" transform="translate(86.4609375, 9.375)" style=""><foreignObject width="0" height="0"><div xmlns="http://www.w3.org/1999/xhtml" style="display: table-cell; white-space: nowrap; line-height: 1.5; max-width: 100px; text-align: start;"><span class="nodeLabel"></span></div></foreignObject></g><g class="divider"><path d="M-73.9609375 -0.00005 L-73.9609375 0.00005 L73.9609375 0.00005 L73.9609375 -0.00005" stroke="none" stroke-width="0" fill="#ECECFF" fill-rule="evenodd"/><path d="M-73.9609375 -0.00005 C-73.9609375 -0.00002213272714691894, -73.9609375 0.000005734545706162119, -73.9609375 0.00005 M-73.9609375 -0.00005 C-73.9609375 -0.000013511308329729309, -73.9609375 0.000022977383340541385, -73.9609375 0.00005 M-73.9609375 0.00005 C-24.86706026550808 0.00005, 24.22681696898384 0.00005, 73.9609375 0.00005 M-73.9609375 0.00005 C-35.07768483315811 0.00005, 3.8055678336837815 0.00005, 73.9609375 0.00005 M73.9609375 0.00005 C73.9609375 0.000010631703321414069, 73.9609375 -0.000028736593357171865, 73.9609375 -0.00005 M73.9609375 0.00005 C73.9609375 0.00001690683251061662, 73.9609375 -0.00001618633497876676, 73.9609375 -0.00005 M73.9609375 -0.00005 C34.30043005101621 -0.00005, -5.360077397967586 -0.00005, -73.9609375 -0.00005 M73.9609375 -0.00005 C38.24342784104712 -0.00005, 2.5259181820942445 -0.00005, -73.9609375 -0.00005" stroke="#9370DB" stroke-width="1.3" fill="none" stroke-dasharray="0 0"/></g><g class="divider"><path d="M-9.8359875 0 L-9.8358875 0 L-9.8358875 42.75 L-9.8359875 42.75" stroke="none" stroke-width="0" fill="#ECECFF" fill-rule="evenodd"/><path d="M-9.8359875 0 C-9.835947598646158 0, -9.835907697292313 0, -9.8358875 0 M-9.8359875 0 C-9.83594916777699 0, -9.835910835553982 0, -9.8358875 0 M-9.8358875 0 C-9.8358875 8.590535932159996, -9.8358875 17.181071864319993, -9.8358875 42.75 M-9.8358875 0 C-9.8358875 13.640292661367122, -9.8358875 27.280585322734243, -9.8358875 42.75 M-9.8358875 42.75 C-9.835925648648315 42.75, -9.835963797296632 42.75, -9.8359875 42.75 M-9.8358875 42.75 C-9.835918719828433 42.75, -9.835949939656865 42.75, -9.8359875 42.75 M-9.8359875 42.75 C-9.8359875 30.67480470284776, -9.8359875 18.599609405695517, -9.8359875 0 M-9.8359875 42.75 C-9.8359875 32.09596025416072, -9.8359875 21.441920508321445, -9.8359875 0" stroke="#9370DB" stroke-width="1.3" fill="none" stroke-dasharray="0 0"/></g><g class="divider"><path d="M27.6171375 0 L27.6172375 0 L27.6172375 42.75 L27.6171375 42.75" stroke="none" stroke-width="0" fill="#ECECFF" fill-rule="evenodd"/><path d="M27.6171375 0 C27.61715923528601 0, 27.617180970572022 0, 27.6172375 0 M27.6171375 0 C27.617170638112167 0, 27.617203776224336 0, 27.6172375 0 M27.6172375 0 C27.6172375 10.535457862991679, 27.6172375 21.070915725983358, 27.6172375 42.75 M27.6172375 0 C27.6172375 12.546098141724263, 27.6172375 25.092196283448526, 27.6172375 42.75 M27.6172375 42.75 C27.617211266665592 42.75, 27.61718503333118 42.75, 27.6171375 42.75 M27.6172375 42.75 C27.617207313357763 42.75, 27.61717712671552 42.75, 27.6171375 42.75 M27.6171375 42.75 C27.6171375 29.96323253933506, 27.6171375 17.176465078670116, 27.6171375 0 M27.6171375 42.75 C27.6171375 26.83169198348591, 27.6171375 10.913383966971821, 27.6171375 0" stroke="#9370DB" stroke-width="1.3" fill="none" stroke-dasharray="0 0"/></g><g class="divider"><path d="M-73.9609375 -0.00005 L-73.9609375 0.00005 L73.9609375 0.00005 L73.9609375 -0.00005" stroke="none" stroke-width="0" fill="#ECECFF" fill-rule="evenodd"/><path d="M-73.9609375 -0.00005 C-73.9609375 -0.000028274586111518088, -73.9609375 -0.000006549172223036174, -73.9609375 0.00005 M-73.9609375 -0.00005 C-73.9609375 -0.000015223078093178334, -73.9609375 0.000019553843813643335, -73.9609375 0.00005 M-73.9609375 0.00005 C-42.19019779460729 0.00005, -10.419458089214586 0.00005, 73.9609375 0.00005 M-73.9609375 0.00005 C-32.759185047554595 0.00005, 8.44256740489081 0.00005, 73.9609375 0.00005 M73.9609375 0.00005 C73.9609375 0.000024420295898257573, 73.9609375 -0.0000011594082034848557, 73.9609375 -0.00005 M73.9609375 0.00005 C73.9609375 0.00001706786026345456, 73.9609375 -0.000015864279473090885, 73.9609375 -0.00005 M73.9609375 -0.00005 C29.505506553886583 -0.00005, -14.949924392226833 -0.00005, -73.9609375 -0.00005 M73.9609375 -0.00005 C34.32951303442093 -0.00005, -5.301911431158146 -0.00005, -73.9609375 -0.00005" stroke="#9370DB" stroke-width="1.3" fill="none" stroke-dasharray="0 0"/></g></g><g class="node default" id="my-svg-entity-Breed-4" data-look="classic" transform="translate(128.17578125, 50.75)"><g class="outer-path" style=""><path d="M-73.9609375 -42.75 L73.9609375 -42.75 L73.9609375 42.75 L-73.9609375 42.75" stroke="none" stroke-width="0" fill="#ECECFF"/><path d="M-73.9609375 -42.75 C-39.71662157847803 -42.75, -5.472305656956067 -42.75, 73.9609375 -42.75 M-73.9609375 -42.75 C-23.857222521092936 -42.75, 26.246492457814128 -42.75, 73.9609375 -42.75 M73.9609375 -42.75 C73.9609375 -12.338175004034852, 73.9609375 18.073649991930296, 73.9609375 42.75 M73.9609375 -42.75 C73.9609375 -20.20851325419434, 73.9609375 2.3329734916113196, 73.9609375 42.75 M73.9609375 42.75 C29.49069793107728 42.75, -14.979541637845443 42.75, -73.9609375 42.75 M73.9609375 42.75 C42.39946638653269 42.75, 10.837995273065374 42.75, -73.9609375 42.75 M-73.9609375 42.75 C-73.9609375 12.467133570840854, -73.9609375 -17.81573285831829, -73.9609375 -42.75 M-73.9609375 42.75 C-73.9609375 17.49122172592997, -73.9609375 -7.767556548140057, -73.9609375 -42.75" stroke="#9370DB" stroke-width="1.3" fill="none" stroke-dasharray="0 0"/></g><g style="" class="row-rect-odd"><path d="M-73.9609375 0 L73.9609375 0 L73.9609375 42.75 L-73.9609375 42.75" stroke="none" stroke-width="0" fill="hsl(240, 100%, 100%)"/><path d="M-73.9609375 0 C-18.999471997091625 0, 35.96199350581675 0, 73.9609375 0 M-73.9609375 0 C-43.57806050780501 0, -13.195183515610026 0, 73.9609375 0 M73.9609375 0 C73.9609375 12.591215685219717, 73.9609375 25.182431370439435, 73.9609375 42.75 M73.9609375 0 C73.9609375 10.40762662752391, 73.9609375 20.81525325504782, 73.9609375 42.75 M73.9609375 42.75 C42.89846408684207 42.75, 11.83599067368413 42.75, -73.9609375 42.75 M73.9609375 42.75 C16.613916412706352 42.75, -40.733104674587295 42.75, -73.9609375 42.75 M-73.9609375 42.75 C-73.9609375 27.346911905199416, -73.9609375 11.943823810398833, -73.9609375 0 M-73.9609375 42.75 C-73.9609375 31.776351851696198, -73.9609375 20.802703703392392, -73.9609375 0" stroke="#9370DB" stroke-width="1.3" fill="none" stroke-dasharray="0 0"/></g><g class="label name" transform="translate(-21.3515625, -33.375)" style=""><foreignObject width="42.703125" height="24"><div xmlns="http://www.w3.org/1999/xhtml" style="display: table-cell; white-space: nowrap; line-height: 1.5; max-width: 138px; text-align: start;"><span class="nodeLabel"><p>Breed</p></span></div></foreignObject></g><g class="label attribute-type" transform="translate(-61.4609375, 9.375)" style=""><foreignObject width="39.125" height="24"><div xmlns="http://www.w3.org/1999/xhtml" style="display: table-cell; white-space: nowrap; line-height: 1.5; max-width: 136px; text-align: start;"><span class="nodeLabel"><p>string</p></span></div></foreignObject></g><g class="label attribute-name" transform="translate(2.6640625, 9.375)" style=""><foreignObject width="12.453125" height="24"><div xmlns="http://www.w3.org/1999/xhtml" style="display: table-cell; white-space: nowrap; line-height: 1.5; max-width: 112px; text-align: start;"><span class="nodeLabel"><p>id</p></span></div></foreignObject></g><g class="label attribute-keys" transform="translate(40.1171875, 9.375)" style=""><foreignObject width="21.34375" height="24"><div xmlns="http://www.w3.org/1999/xhtml" style="display: table-cell; white-space: nowrap; line-height: 1.5; max-width: 121px; text-align: start;"><span class="nodeLabel"><p>PK</p></span></div></foreignObject></g><g class="label attribute-comment" transform="translate(86.4609375, 9.375)" style=""><foreignObject width="0" height="0"><div xmlns="http://www.w3.org/1999/xhtml" style="display: table-cell; white-space: nowrap; line-height: 1.5; max-width: 100px; text-align: start;"><span class="nodeLabel"></span></div></foreignObject></g><g class="divider"><path d="M-73.9609375 -0.00005 L-73.9609375 0.00005 L73.9609375 0.00005 L73.9609375 -0.00005" stroke="none" stroke-width="0" fill="#ECECFF" fill-rule="evenodd"/><path d="M-73.9609375 -0.00005 C-73.9609375 -0.00002390400022942062, -73.9609375 0.0000021919995411587647, -73.9609375 0.00005 M-73.9609375 -0.00005 C-73.9609375 -0.000029034867911905464, -73.9609375 -0.000008069735823810927, -73.9609375 0.00005 M-73.9609375 0.00005 C-18.792157547270882 0.00005, 36.376622405458235 0.00005, 73.9609375 0.00005 M-73.9609375 0.00005 C-25.528630637339134 0.00005, 22.903676225321732 0.00005, 73.9609375 0.00005 M73.9609375 0.00005 C73.9609375 0.000025475778943702294, 73.9609375 9.515578874045859e-7, 73.9609375 -0.00005 M73.9609375 0.00005 C73.9609375 0.000013286139978384001, 73.9609375 -0.000023427720043232, 73.9609375 -0.00005 M73.9609375 -0.00005 C23.59477079632621 -0.00005, -26.771395907347582 -0.00005, -73.9609375 -0.00005 M73.9609375 -0.00005 C37.15351864017513 -0.00005, 0.3460997803502579 -0.00005, -73.9609375 -0.00005" stroke="#9370DB" stroke-width="1.3" fill="none" stroke-dasharray="0 0"/></g><g class="divider"><path d="M-9.8359875 0 L-9.8358875 0 L-9.8358875 42.75 L-9.8359875 42.75" stroke="none" stroke-width="0" fill="#ECECFF" fill-rule="evenodd"/><path d="M-9.8359875 0 C-9.835951427818998 0, -9.835915355637995 0, -9.8358875 0 M-9.8359875 0 C-9.835958189699234 0, -9.835928879398468 0, -9.8358875 0 M-9.8358875 0 C-9.8358875 10.027124983820908, -9.8358875 20.054249967641816, -9.8358875 42.75 M-9.8358875 0 C-9.8358875 12.36584903775485, -9.8358875 24.7316980755097, -9.8358875 42.75 M-9.8358875 42.75 C-9.835917153479159 42.75, -9.835946806958319 42.75, -9.8359875 42.75 M-9.8358875 42.75 C-9.8359245332979 42.75, -9.835961566595802 42.75, -9.8359875 42.75 M-9.8359875 42.75 C-9.8359875 25.89873871378046, -9.8359875 9.04747742756092, -9.8359875 0 M-9.8359875 42.75 C-9.8359875 29.80131164904514, -9.8359875 16.85262329809028, -9.8359875 0" stroke="#9370DB" stroke-width="1.3" fill="none" stroke-dasharray="0 0"/></g><g class="divider"><path d="M27.6171375 0 L27.6172375 0 L27.6172375 42.75 L27.6171375 42.75" stroke="none" stroke-width="0" fill="#ECECFF" fill-rule="evenodd"/><path d="M27.6171375 0 C27.61717055767216 0, 27.617203615344323 0, 27.6172375 0 M27.6171375 0 C27.61716376215181 0, 27.617190024303625 0, 27.6172375 0 M27.6172375 0 C27.6172375 16.553290764120725, 27.6172375 33.10658152824145, 27.6172375 42.75 M27.6172375 0 C27.6172375 16.23511347203018, 27.6172375 32.47022694406036, 27.6172375 42.75 M27.6172375 42.75 C27.61721052618738 42.75, 27.617183552374758 42.75, 27.6171375 42.75 M27.6172375 42.75 C27.617199957343104 42.75, 27.617162414686206 42.75, 27.6171375 42.75 M27.6171375 42.75 C27.6171375 32.80743883989848, 27.6171375 22.86487767979697, 27.6171375 0 M27.6171375 42.75 C27.6171375 32.689221328611936, 27.6171375 22.628442657223875, 27.6171375 0" stroke="#9370DB" stroke-width="1.3" fill="none" stroke-dasharray="0 0"/></g><g class="divider"><path d="M-73.9609375 -0.00005 L-73.9609375 0.00005 L73.9609375 0.00005 L73.9609375 -0.00005" stroke="none" stroke-width="0" fill="#ECECFF" fill-rule="evenodd"/><path d="M-73.9609375 -0.00005 C-73.9609375 -0.000018153820832496924, -73.9609375 0.000013692358335006155, -73.9609375 0.00005 M-73.9609375 -0.00005 C-73.9609375 -0.000022684664327558027, -73.9609375 0.000004630671344883949, -73.9609375 0.00005 M-73.9609375 0.00005 C-26.55577292413618 0.00005, 20.849391651727643 0.00005, 73.9609375 0.00005 M-73.9609375 0.00005 C-43.071274668939026 0.00005, -12.181611837878052 0.00005, 73.9609375 0.00005 M73.9609375 0.00005 C73.9609375 0.000020205730202571992, 73.9609375 -0.000009588539594856017, 73.9609375 -0.00005 M73.9609375 0.00005 C73.9609375 0.000022771835265631846, 73.9609375 -0.000004456329468736309, 73.9609375 -0.00005 M73.9609375 -0.00005 C38.58246659542027 -0.00005, 3.203995690840543 -0.00005, -73.9609375 -0.00005 M73.9609375 -0.00005 C17.610311600362657 -0.00005, -38.74031429927469 -0.00005, -73.9609375 -0.00005" stroke="#9370DB" stroke-width="1.3" fill="none" stroke-dasharray="0 0"/></g></g></g></g></g><defs><filter id="my-svg-drop-shadow" height="130%" width="130%"><feDropShadow dx="4" dy="4" stdDeviation="0" flood-opacity="0.06" flood-color="#000000"/></filter></defs><defs><filter id="my-svg-drop-shadow-small" height="150%" width="150%"><feDropShadow dx="2" dy="2" stdDeviation="0" flood-opacity="0.06" flood-color="#000000"/></filter></defs></svg>